<?xml version="1.0" encoding="utf-8"?>
<!-- Generator: Adobe Illustrator 25.0.0, SVG Export Plug-In . SVG Version: 6.00 Build 0)  -->
<svg version="1.1" id="Calque_1" xmlns="http://www.w3.org/2000/svg" xmlns:xlink="http://www.w3.org/1999/xlink" x="0px" y="0px"
	 viewBox="0 0 628 118" style="enable-background:new 0 0 628 118;" xml:space="preserve">
<style type="text/css">
	.st0{fill:#fff;}
	.st1{fill:#fff;}
</style>
<g>
	<g>
		<path class="st0" d="M6,95.2V14.3h28.6c28.7,0,43.1,13.1,43.1,39.4c0,12.6-3.9,22.6-11.8,30.2c-7.8,7.5-18.3,11.3-31.3,11.3
			L6,95.2L6,95.2z M24.2,29.2v51.3h9c7.9,0,14.1-2.4,18.6-7.1s6.7-11.2,6.7-19.3c0-7.7-2.2-13.8-6.7-18.2
			c-4.4-4.4-10.7-6.6-18.8-6.6L24.2,29.2L24.2,29.2z"/>
		<path class="st0" d="M116.9,96.6c-9.6,0-17.2-2.7-22.7-8.1c-5.5-5.4-8.3-12.7-8.3-22c0-9.5,2.9-17,8.6-22.4S108,36,117.7,36
			c9.6,0,17.1,2.7,22.6,8.1c5.4,5.4,8.2,12.5,8.2,21.4c0,9.6-2.8,17.2-8.4,22.7C134.4,93.8,126.7,96.6,116.9,96.6z M117.4,49.7
			c-4.2,0-7.5,1.5-9.8,4.3c-2.3,2.9-3.5,7-3.5,12.3c0,11.1,4.5,16.6,13.4,16.6c8.5,0,12.8-5.7,12.8-17.1
			C130.3,55.1,126,49.7,117.4,49.7z"/>
		<path class="st0" d="M203.8,93.1c-4,2.3-9.8,3.5-17.4,3.5c-8.9,0-16-2.7-21.5-8.1c-5.5-5.4-8.2-12.3-8.2-20.8
			c0-9.8,2.9-17.5,8.8-23.2c5.9-5.7,13.8-8.5,23.6-8.5c6.8,0,11.7,0.9,14.8,2.7v15.1c-3.7-2.8-7.9-4.2-12.5-4.2
			c-5.1,0-9.2,1.5-12.1,4.5s-4.5,7.1-4.5,12.4c0,5.1,1.4,9.1,4.3,12c2.9,2.9,6.8,4.4,11.8,4.4c4.4,0,8.8-1.4,13-4.2L203.8,93.1
			L203.8,93.1z"/>
		<path class="st0" d="M250.3,94.5c-2.6,1.4-6.6,2.1-11.9,2.1c-12.6,0-18.8-6.5-18.8-19.6V50.6h-9.4V37.4h9.4V25l17.8-5.1v17.5h13
			v13.1h-13v23.4c0,6,2.4,9,7.2,9c1.9,0,3.8-0.5,5.8-1.6V94.5z"/>
		<path class="st0" d="M287.9,96.6c-9.6,0-17.2-2.7-22.7-8.1c-5.5-5.4-8.3-12.7-8.3-22c0-9.5,2.9-17,8.6-22.4
			c5.7-5.4,13.4-8.1,23.2-8.1c9.6,0,17.1,2.7,22.6,8.1c5.5,5.4,8.2,12.5,8.2,21.4c0,9.6-2.8,17.2-8.4,22.7
			C305.4,93.8,297.7,96.6,287.9,96.6z M288.3,49.7c-4.2,0-7.5,1.5-9.8,4.3c-2.3,2.9-3.5,7-3.5,12.3c0,11.1,4.5,16.6,13.4,16.6
			c8.5,0,12.8-5.7,12.8-17.1C301.3,55.1,297,49.7,288.3,49.7z"/>
		<path class="st1" d="M348.8,95.2H331V9.7h17.8V95.2z"/>
		<path class="st1" d="M372.8,28.3c-3,0-5.5-0.9-7.4-2.7c-1.9-1.8-2.9-4-2.9-6.6c0-2.7,1-4.9,2.9-6.5c1.9-1.7,4.4-2.5,7.4-2.5
			c3,0,5.5,0.8,7.4,2.5c1.9,1.7,2.9,3.9,2.9,6.5c0,2.7-1,4.9-2.9,6.7C378.3,27.4,375.9,28.3,372.8,28.3z M381.6,95.2h-17.8V37.4
			h17.8V95.2z"/>
		<path class="st1" d="M452.4,95.2h-17.8V63.1c0-9-3.2-13.4-9.6-13.4c-3.1,0-5.6,1.2-7.6,3.5c-2,2.4-3,5.4-3,9v32.9h-17.8V37.4h17.8
			v9.1h0.2c4.3-7,10.4-10.5,18.6-10.5c12.8,0,19.2,7.9,19.2,23.8V95.2z"/>
		<path class="st1" d="M524.4,95.2H503l-18.4-28.6h-0.2v28.6h-17.8V9.7h17.8v54.4h0.2l17.2-26.7h21.2l-20.7,27.1L524.4,95.2z"/>
	</g>
	<g>
		<path class="st0" d="M565.1,51.4l-22.7,16.8c-5.5,4-8.7,9.4-9.7,16.1c-1,6.7,0.5,12.8,4.6,18.2c4,5.5,9.4,8.7,16.1,9.7
			c6.7,1,12.8-0.5,18.2-4.6l10.5-7.8l6.3-4.7l5.9-4.4l16.8-12.4l1.6-1.2l0-0.1c4.5-3.9,7.2-8.8,8.1-14.8c1-6.7-0.5-12.8-4.6-18.2
			c-4-5.5-9.4-8.7-16.1-9.7c-6.7-1-12.8,0.5-18.2,4.6L565.1,51.4l4.4,5.9l16.8-12.4c3.8-2.8,8.1-3.9,12.8-3.2
			c4.7,0.7,8.5,3,11.3,6.8c2.8,3.8,3.9,8.1,3.2,12.8c-0.7,4.7-3,8.5-6.8,11.3L590,84.9l-5.9,4.4l-6.3,4.7l-10.5,7.8
			c-3.8,2.8-8.1,3.9-12.8,3.2c-4.7-0.7-8.5-3-11.3-6.8s-3.9-8.1-3.2-12.8c0.7-4.7,3-8.5,6.8-11.3l22.7-16.8L565.1,51.4z"/>
		<path class="st1" d="M595.2,26.6L572.9,9.3c-5.3-4.2-11.4-5.9-18.1-5c-6.7,0.8-12.2,3.9-16.3,9.3c-4.2,5.4-5.8,11.4-5,18.1
			c0.8,6.7,3.9,12.2,9.3,16.3l10.3,8l6.2,4.8l5.8,4.5l16.4,12.8l1.6,1.2l0-0.1c4.9,3.3,10.4,4.6,16.5,3.9c6.7-0.8,12.2-3.9,16.3-9.3
			c4.2-5.4,5.8-11.4,5-18.1c-0.8-6.7-3.9-12.2-9.3-16.3L595.2,26.6l-4.5,5.8l16.4,12.8c3.7,2.9,5.9,6.7,6.5,11.4
			c0.6,4.7-0.6,8.9-3.5,12.7c-2.9,3.7-6.7,5.9-11.4,6.5c-4.7,0.6-8.9-0.6-12.7-3.5l-16.4-12.8l-5.8-4.5l-6.2-4.8l-10.3-8
			c-3.7-2.9-5.9-6.7-6.5-11.4c-0.6-4.7,0.6-8.9,3.5-12.7s6.7-5.9,11.4-6.5s8.9,0.6,12.7,3.5l22.2,17.4L595.2,26.6z"/>
	</g>
</g>
</svg>
