<svg width="888" height="656" viewBox="0 0 888 656" fill="none" xmlns="http://www.w3.org/2000/svg">
<g clip-path="url(#clip0_411_271)">
<path opacity="0.1" d="M58.1186 257.118H135.297V362.284H63.7617C63.5792 363.371 63.3967 364.45 63.1913 365.538H135.297V450.336C135.175 450.336 135.054 450.245 134.94 450.199C132.911 449.393 130.883 448.539 128.855 447.637C128.422 447.44 127.996 447.234 127.555 447.044C125.527 446.086 123.499 445.073 121.471 444.003C120.763 443.631 120.056 443.243 119.364 442.848C108.105 436.567 97.8717 428.604 89.0188 419.234C88.7527 418.983 88.5093 418.71 88.2583 418.474C87.0263 417.136 85.817 415.783 84.6458 414.399C84.2047 413.89 83.7788 413.373 83.3453 412.879C81.9611 411.191 80.6226 409.442 79.3297 407.686C79.132 407.42 78.9495 407.161 78.7593 406.926C73.463 399.599 69.0708 391.661 65.6782 383.282C65.5718 383.031 65.4729 382.757 65.374 382.522C64.3245 379.861 63.3738 377.162 62.5525 374.41C62.2026 373.262 61.8604 372.129 61.5714 370.935C61.4649 370.593 61.3813 370.244 61.29 369.901C57.0158 353.062 56.5215 335.561 56.5215 318.143C56.5215 316.116 56.5215 314.089 56.5215 312.061C56.5823 304.95 56.666 297.847 56.7725 290.751C56.813 288.927 56.851 287.095 56.8865 285.255C56.993 280.597 57.1451 275.929 57.3429 271.251C57.3885 269.958 57.4493 268.658 57.5178 267.374C57.5482 266.629 57.5862 265.884 57.6319 265.138C57.7688 262.447 57.931 259.774 58.1186 257.118Z" fill="#06CB90"/>
<path opacity="0.1" d="M135.298 140.023H92.959C99.8445 129.262 107.364 118.92 115.478 109.051C121.775 101.327 128.407 93.8001 135.298 86.5472V140.023Z" fill="#06CB90"/>
<path opacity="0.1" d="M135.298 143.262V253.864H58.3633C58.3633 253.545 58.4089 253.218 58.4393 252.898C58.5078 252.024 58.5762 251.157 58.6523 250.283C58.7283 249.264 58.8272 248.246 58.9261 247.242C59.0249 246.239 59.1238 245.022 59.2455 243.92C59.3672 242.817 59.466 241.7 59.5877 240.597C59.7094 239.495 59.8311 238.393 59.968 237.298C60.1049 236.203 60.2266 235.093 60.3787 233.998C60.4928 233.094 60.6068 232.181 60.7361 231.269C60.911 229.984 61.0936 228.7 61.2837 227.422C61.2837 227.225 61.3445 227.035 61.375 226.844C62.7649 217.496 64.6537 208.227 67.0333 199.08C69.5322 189.486 72.722 180.085 76.5779 170.951C80.6752 161.38 85.4745 152.125 90.9367 143.262H135.298Z" fill="#06CB90"/>
<path opacity="0.1" d="M153.732 257.118V362.284H318.584V257.118H153.732ZM153.732 365.538V455.856C154.675 456.046 155.603 456.236 156.539 456.395C157.794 456.639 159.056 456.859 160.341 457.049L161.102 457.156C161.604 457.239 162.113 457.308 162.623 457.368C163.893 457.551 165.163 457.688 166.426 457.809C167.019 457.87 167.635 457.916 168.236 457.969L169.704 458.076C170.502 458.136 171.293 458.182 172.084 458.212C172.571 458.212 173.057 458.25 173.552 458.266C174.046 458.281 174.312 458.266 174.708 458.266H176.145C176.799 458.266 177.453 458.266 178.1 458.266H178.936C179.59 458.266 180.244 458.266 180.891 458.205H180.929C181.385 458.205 181.834 458.205 182.29 458.152C182.419 458.159 182.549 458.159 182.678 458.152C183.058 458.152 183.439 458.152 183.804 458.106C183.89 458.099 183.976 458.099 184.062 458.106C184.906 458.053 185.758 457.984 186.618 457.908C187.477 457.832 188.291 457.741 189.15 457.65L190.877 457.437C197.931 456.45 204.907 454.966 211.753 452.997C227.139 448.709 242.174 442.711 257.552 438.324C277.417 432.66 299.381 429.87 318.577 436.766V365.538H153.732ZM318.584 140.023V0.0151957C300.538 -0.183285 282.54 1.92449 265.028 6.28729C223.283 16.7712 185.796 39.5104 153.732 68.5521V140.016H162.03V143.262H153.732V253.864H318.584V143.262H195.972V140.008L318.584 140.023ZM530.376 92.7281C520.048 92.3632 509.781 89.1017 500.488 84.046C482.737 74.3984 468.545 59.4822 452.696 46.9076C419.765 20.7017 378.925 4.88082 337.027 0.95791V140.023H572.342L572.928 139.408L530.376 92.7281ZM551.816 88.9268L574.548 113.871V82.3659C566.897 83.3314 560.235 85.5741 551.816 88.8964V88.9268ZM574.548 478.283V365.538H526.072C525.95 365.059 525.813 364.572 525.661 364.085C525.806 364.572 525.935 365.059 526.064 365.538H337.027V447.067C338.822 448.397 340.594 449.804 342.351 451.218C344.247 452.769 346.131 454.338 348.002 455.924L349.888 457.483C350.793 458.243 351.713 459.003 352.626 459.725C354.456 461.2 356.299 462.66 358.155 464.104C359.083 464.834 360.015 465.551 360.953 466.256C375.808 477.605 391.477 487.847 407.832 496.902C411.498 498.947 415.202 500.916 418.928 502.839C421.408 504.116 423.905 505.368 426.42 506.595C430.192 508.435 433.995 510.209 437.828 511.917C473.166 527.774 510.535 538.653 548.865 544.243C557.372 545.495 565.918 546.483 574.502 547.208V478.268H575.263L574.548 478.283ZM337.027 143.262V253.864H574.548V143.262H337.027ZM337.027 257.103V362.284H574.548V257.118L337.027 257.103ZM592.983 82.2138V117.414L621.989 85.5817C612.376 83.9953 602.708 82.8727 592.983 82.2138ZM592.983 257.118V362.284H823.993V257.118H592.983ZM823.18 486.623L823.993 365.538H592.983V548.432C607.863 549.05 622.765 548.87 637.626 547.892H637.884C644.983 547.436 652.048 546.787 659.08 545.946H659.24C696.769 541.579 733.463 531.781 768.171 516.858M868.56 274.391C867.683 272.363 866.783 270.336 865.86 268.309C864.142 264.507 862.331 260.813 860.461 257.125H842.436V362.284H887.999C887.961 332.497 880.417 302.087 868.56 274.391ZM797.055 577.77V681.925C809.885 669.631 820.738 655.559 828.541 639.472C837.934 620.093 842.231 599.125 842.588 577.762L797.055 577.77ZM797.055 438.704V466.073H813.392C834.717 430.384 848.32 390.621 853.323 349.351C858.326 308.081 854.617 266.221 842.436 226.472L797.055 438.704ZM640.387 315.087C639.185 314.623 637.976 314.16 636.767 313.719C624.017 309.008 610.986 305.093 597.751 301.996L553.352 350.697L552.485 351.632L553.055 352.248H711.078C734.985 268.952 725.922 179.654 685.767 102.855L640.387 315.087ZM761.098 143.262H596.223L592.983 146.22V253.864H621.389H823.993V201.71C805.673 179.564 784.528 159.914 761.098 143.262Z" fill="#06CB90"/>
<path opacity="0.1" d="M135.298 199.057V253.864H58.3633C58.3633 253.545 58.4089 253.218 58.4393 252.898C58.5078 252.024 58.5762 251.157 58.6523 250.283C58.7283 249.264 58.8272 248.246 58.9261 247.242C59.0249 246.239 59.1238 245.022 59.2455 243.92C59.3672 242.817 59.466 241.7 59.5877 240.597C59.7094 239.495 59.8311 238.393 59.968 237.298C60.1049 236.203 60.2266 235.093 60.3787 233.998C60.4928 233.094 60.6068 232.181 60.7361 231.269C60.911 229.984 61.0936 228.699 61.2837 227.422C61.2837 227.225 61.3445 227.035 61.375 226.844C62.7649 217.495 64.6537 208.227 67.0333 199.08L135.298 199.057Z" fill="#06CB90"/>
<path opacity="0.1" d="M58.1186 257.118H135.297V362.284H63.7617C63.5792 363.371 63.3967 364.45 63.1913 365.538H135.297V450.336C135.175 450.336 135.054 450.245 134.94 450.199C132.911 449.393 130.883 448.539 128.855 447.637C128.422 447.44 127.996 447.234 127.555 447.044C125.527 446.086 123.499 445.073 121.471 444.003C120.763 443.631 120.056 443.243 119.364 442.848C108.105 436.567 97.8717 428.604 89.0188 419.234C88.7527 418.983 88.5093 418.71 88.2583 418.474C87.0263 417.136 85.817 415.783 84.6458 414.399C84.2047 413.89 83.7788 413.373 83.3453 412.879C81.9611 411.191 80.6226 409.442 79.3297 407.686C79.132 407.42 78.9495 407.161 78.7593 406.926C73.463 399.599 69.0708 391.661 65.6782 383.282C65.5718 383.031 65.4729 382.757 65.374 382.522C64.3245 379.861 63.3738 377.162 62.5525 374.41C62.2026 373.262 61.8604 372.129 61.5714 370.935C61.4649 370.593 61.3813 370.244 61.29 369.901C57.0158 353.062 56.5215 335.561 56.5215 318.143C56.5215 316.116 56.5215 314.089 56.5215 312.061C56.5823 304.95 56.666 297.847 56.7725 290.751C56.813 288.927 56.851 287.095 56.8865 285.255C56.993 280.597 57.1451 275.929 57.3429 271.251C57.3885 269.958 57.4493 268.658 57.5178 267.374C57.5482 266.629 57.5862 265.884 57.6319 265.138C57.7688 262.447 57.931 259.774 58.1186 257.118Z" fill="#06CB90"/>
<path opacity="0.1" d="M211.76 159.106V253.864H153.725V159.106H161.999V127.023H195.964V159.106H211.76Z" fill="#06CB90"/>
<path opacity="0.1" d="M211.753 257.11H153.725V362.276H211.753V257.11Z" fill="#06CB90"/>
<path opacity="0.1" d="M153.732 365.537H211.761V452.967C204.916 454.937 197.939 456.418 190.884 457.399C190.306 457.483 189.736 457.551 189.158 457.612C188.306 457.711 187.462 457.802 186.618 457.878L184.07 458.083H183.811L182.686 458.144H182.298C181.842 458.144 181.393 458.197 180.937 458.205H180.898C180.244 458.205 179.598 458.25 178.944 458.266H178.107C177.461 458.266 176.814 458.266 176.153 458.266H174.723H173.559C173.065 458.266 172.578 458.266 172.084 458.205C171.303 458.174 170.512 458.129 169.711 458.068L168.243 457.962C167.635 457.916 167.026 457.855 166.426 457.794C165.148 457.683 163.88 457.538 162.623 457.361L161.102 457.148L160.341 457.042C159.071 456.852 157.809 456.639 156.539 456.395C155.596 456.228 154.668 456.038 153.732 455.84V365.537Z" fill="#06CB90"/>
<path opacity="0.1" d="M574.54 147.915H526.688V253.856H574.54V147.915Z" fill="#06CB90"/>
<path opacity="0.1" d="M574.548 257.11V362.284H337.027V316.919H463.541V343.68H526.688V257.11H574.548Z" fill="#06CB90"/>
<path opacity="0.1" d="M575.301 478.306C575.05 478.306 574.799 478.306 574.54 478.26V547.253C565.967 546.549 557.423 545.563 548.91 544.296C510.567 538.708 473.184 527.835 437.828 511.985C427.621 507.383 417.623 502.368 407.832 496.94C391.482 487.881 375.816 477.638 360.961 466.294C357.219 463.435 353.533 460.513 349.903 457.528C347.386 455.445 344.891 453.316 342.351 451.256C340.602 449.834 338.83 448.428 337.027 447.09V365.538H526.064C525.927 365.051 525.806 364.572 525.669 364.085C525.813 364.572 525.95 365.051 526.072 365.538H574.548V478.253C574.799 478.26 575.05 478.283 575.301 478.306Z" fill="#06CB90"/>
<path opacity="0.1" d="M699.352 140.024H668.17V130.338H682.141V101.486C683.353 101.932 684.559 102.388 685.761 102.855V130.338H699.344L699.352 140.024Z" fill="#06CB90"/>
<path opacity="0.1" d="M774.484 253.864H621.39C621.405 253.867 621.421 253.867 621.436 253.864H621.367H592.984V147.923H601.031V226.229H637.795V179.853H668.178V143.262H699.359V179.876H729.727V226.251H774.492L774.484 253.864Z" fill="#06CB90"/>
<path opacity="0.1" d="M592.984 257.118V362.284H774.492V257.118H592.984ZM823.736 486.068L823.995 402.82H774.492V365.568H592.984V548.432C607.864 549.05 622.767 548.87 637.627 547.892H637.886C644.984 547.436 652.049 546.787 659.082 545.946H659.242C696.77 541.579 733.464 531.781 768.172 516.858" fill="#06CB90"/>
<path opacity="0.1" d="M845.632 365.537H887.97C887.605 386.893 883.316 407.868 873.923 427.24C866.12 443.334 855.268 457.407 842.438 469.7V402.798H845.632V365.537Z" fill="#06CB90"/>
<path opacity="0.1" d="M888 362.284H845.631V274.391H868.561C880.417 302.087 887.962 332.497 888 362.284Z" fill="#06CB90"/>
<path opacity="0.1" d="M574.548 177.367H548.91V210.583H574.548V177.367Z" fill="#06CB90"/>
<path opacity="0.1" d="M574.548 246.216H548.91V253.864H574.548V246.216Z" fill="#06CB90"/>
<path opacity="0.1" d="M574.548 257.11H548.91V279.424H574.548V257.11Z" fill="#06CB90"/>
<path opacity="0.1" d="M574.548 315.064H548.91V348.28H574.548V315.064Z" fill="#06CB90"/>
<path opacity="0.1" d="M574.548 383.913H548.91V417.128H574.548V383.913Z" fill="#06CB90"/>
<path opacity="0.1" d="M574.548 478.253C574.798 478.253 575.049 478.253 575.308 478.306C575.057 478.306 574.806 478.306 574.548 478.26V485.977H548.91V452.761H574.548V478.253Z" fill="#06CB90"/>
<path opacity="0.1" d="M574.548 521.602V547.253C565.969 546.549 557.423 545.563 548.91 544.296V521.602H574.548Z" fill="#06CB90"/>
<path opacity="0.1" d="M446.901 359.843H337.027V362.284H446.901V359.843Z" fill="#06CB90"/>
<path opacity="0.1" d="M446.901 365.53H337.027V374.881H446.901V365.53Z" fill="#06CB90"/>
<path opacity="0.1" d="M446.901 405.534H337.027V420.572H446.901V405.534Z" fill="#06CB90"/>
<path opacity="0.1" d="M446.901 451.226V466.263H360.962C357.22 463.415 353.534 460.491 349.904 457.49C347.379 455.415 344.884 453.286 342.352 451.226H446.901Z" fill="#06CB90"/>
<path opacity="0.1" d="M446.902 496.909V511.985H437.829C427.623 507.383 417.625 502.368 407.834 496.94L446.902 496.909Z" fill="#06CB90"/>
<path opacity="0.1" d="M659.256 267.305H637.627V288.927H659.256V267.305Z" fill="#06CB90"/>
<path opacity="0.1" d="M190.938 166.564H169.309V188.186H190.938V166.564Z" fill="#06CB90"/>
<path opacity="0.1" d="M190.938 216.786H169.309V238.408H190.938V216.786Z" fill="#06CB90"/>
<path opacity="0.1" d="M190.938 267.009H169.309V288.63H190.938V267.009Z" fill="#06CB90"/>
<path opacity="0.1" d="M190.938 317.223H169.309V338.845H190.938V317.223Z" fill="#06CB90"/>
<path opacity="0.1" d="M190.938 367.446H169.309V389.067H190.938V367.446Z" fill="#06CB90"/>
<path opacity="0.1" d="M190.938 417.668H169.309V439.29H190.938V417.668Z" fill="#06CB90"/>
<path opacity="0.1" d="M741.827 267.305H720.197V288.927H741.827V267.305Z" fill="#06CB90"/>
<path opacity="0.1" d="M659.256 320.637H637.627V342.259H659.256V320.637Z" fill="#06CB90"/>
<path opacity="0.1" d="M741.827 320.637H720.197V342.259H741.827V320.637Z" fill="#06CB90"/>
<path opacity="0.1" d="M659.256 373.961H637.627V395.583H659.256V373.961Z" fill="#06CB90"/>
<path opacity="0.1" d="M741.827 373.961H720.197V395.583H741.827V373.961Z" fill="#06CB90"/>
<path opacity="0.1" d="M659.256 427.293H637.627V448.915H659.256V427.293Z" fill="#06CB90"/>
<path opacity="0.1" d="M741.827 427.293H720.197V448.915H741.827V427.293Z" fill="#06CB90"/>
<path opacity="0.1" d="M659.256 480.625H637.627V502.246H659.256V480.625Z" fill="#06CB90"/>
<path opacity="0.1" d="M741.827 480.625H720.197V502.246H741.827V480.625Z" fill="#06CB90"/>
<path opacity="0.1" d="M637.627 547.892V533.949H659.249V545.908L637.627 547.892Z" fill="#06CB90"/>
<path opacity="0.1" d="M61.2832 226.822V239.191H135.298V226.822H61.2832ZM68.6527 238.416H62.5685V227.605H68.6527V238.416ZM76.0222 238.416H69.938V227.605H76.0222V238.416ZM83.3765 238.416H77.2923V227.605H83.3765V238.416ZM90.7461 238.416H84.6618V227.605H90.7461V238.416ZM98.108 238.416H92.0237V227.605H98.108V238.416ZM105.477 238.416H99.3933V227.605H105.477V238.416ZM112.847 238.416H106.763V227.605H112.847V238.416ZM120.209 238.416H114.125V227.605H120.209V238.416ZM127.571 238.416H121.487V227.605H127.571V238.416ZM134.94 238.416H128.856V227.605H134.94V238.416Z" fill="#06CB90"/>
<path opacity="0.1" d="M61.2832 262.827V275.197H135.298V262.827H61.2832ZM68.6527 274.421H62.5685V263.61H68.6527V274.421ZM76.0222 274.421H69.938V263.61H76.0222V274.421ZM83.3765 274.421H77.2923V263.61H83.3765V274.421ZM90.7461 274.421H84.6618V263.61H90.7461V274.421ZM98.108 274.421H92.0237V263.61H98.108V274.421ZM105.477 274.421H99.3933V263.61H105.477V274.421ZM112.847 274.421H106.763V263.61H112.847V274.421ZM120.209 274.421H114.125V263.61H120.209V274.421ZM127.571 274.421H121.487V263.61H127.571V274.421ZM134.94 274.421H128.856V263.61H134.94V274.421Z" fill="#06CB90"/>
<path opacity="0.1" d="M61.2832 298.84V311.202H135.298V298.84H61.2832ZM68.6527 310.419H62.5685V299.608H68.6527V310.419ZM76.0222 310.419H69.938V299.608H76.0222V310.419ZM83.3765 310.419H77.2923V299.608H83.3765V310.419ZM90.7461 310.419H84.6618V299.608H90.7461V310.419ZM98.108 310.419H92.0237V299.608H98.108V310.419ZM105.477 310.419H99.3933V299.608H105.477V310.419ZM112.847 310.419H106.763V299.608H112.847V310.419ZM120.209 310.419H114.125V299.608H120.209V310.419ZM127.571 310.419H121.487V299.608H127.571V310.419ZM134.94 310.419H128.856V299.608H134.94V310.419Z" fill="#06CB90"/>
<path opacity="0.1" d="M61.2832 334.846V347.208H135.298V334.846H61.2832ZM68.6527 346.432H62.5685V335.606H68.6527V346.432ZM76.0222 346.432H69.938V335.606H76.0222V346.432ZM83.3765 346.432H77.2923V335.606H83.3765V346.432ZM90.7461 346.432H84.6618V335.606H90.7461V346.432ZM98.108 346.432H92.0237V335.606H98.108V346.432ZM105.477 346.432H99.3933V335.606H105.477V346.432ZM112.847 346.432H106.763V335.606H112.847V346.432ZM120.209 346.432H114.125V335.606H120.209V346.432ZM127.571 346.432H121.487V335.606H127.571V346.432ZM134.94 346.432H128.856V335.606H134.94V346.432Z" fill="#06CB90"/>
<path opacity="0.1" d="M61.6406 370.836C61.9296 372.007 62.2719 373.163 62.6217 374.311V371.62H68.7059V382.423H65.4433C65.5345 382.681 65.6334 382.947 65.7399 383.183H135.328V370.836H61.6406ZM76.0907 382.423H70.0064V371.62H76.0907V382.423ZM83.445 382.423H77.3607V371.62H83.445V382.423ZM90.8145 382.423H84.7303V371.62H90.8145V382.423ZM98.1764 382.423H92.0922V371.62H98.1764V382.423ZM105.546 382.423H99.4617V371.62H105.546V382.423ZM112.915 382.423H106.831V371.62H112.915V382.423ZM120.277 382.423H114.193V371.62H120.277V382.423ZM127.639 382.423H121.555V371.62H127.639V382.423ZM135.009 382.423H128.925V371.62H135.009V382.423Z" fill="#06CB90"/>
<path opacity="0.1" d="M78.7832 406.842C78.9809 407.085 79.1635 407.359 79.3536 407.602H83.3768V412.795L84.6773 414.315V407.572H90.7615V418.474H88.2594C88.5027 418.725 88.7385 418.991 89.0199 419.234H135.283V406.842H78.7832ZM98.1462 418.474H92.062V407.618H98.1462V418.474ZM105.516 418.474H99.4315V407.618H105.516V418.474ZM112.885 418.474H106.801V407.618H112.885V418.474ZM120.247 418.474H114.163V407.618H120.247V418.474ZM127.609 418.474H121.525V407.618H127.609V418.474ZM134.979 418.474H128.894V407.618H134.979V418.474Z" fill="#06CB90"/>
<path opacity="0.1" d="M119.387 442.848C120.086 443.243 120.794 443.608 121.501 443.996V443.616H127.585V447.044C128.026 447.234 128.445 447.44 128.878 447.637V443.616H134.962V450.199C135.078 450.252 135.198 450.295 135.32 450.329V442.848H119.387Z" fill="#06CB90"/>
<path opacity="0.1" d="M574.542 478.253H575.302H574.542ZM525.662 364.085C525.807 364.572 525.936 365.059 526.066 365.538C525.951 365.059 525.815 364.572 525.662 364.085ZM162.031 140.024V143.262H196.004V140.008L162.031 140.024ZM574.549 478.253H575.31H574.549ZM525.662 364.085C525.807 364.572 525.936 365.059 526.066 365.538C525.951 365.059 525.815 364.572 525.662 364.085ZM574.542 478.253H575.302H574.542ZM525.662 364.085C525.807 364.572 525.936 365.059 526.066 365.538C525.951 365.059 525.815 364.572 525.662 364.085Z" fill="#06CB90"/>
<path opacity="0.1" d="M668.83 656C709.758 656 742.936 650.673 742.936 644.102C742.936 637.531 709.758 632.204 668.83 632.204C627.903 632.204 594.725 637.531 594.725 644.102C594.725 650.673 627.903 656 668.83 656Z" fill="#06CB90"/>
<path opacity="0.1" d="M334.61 644.102C375.537 644.102 408.716 638.775 408.716 632.204C408.716 625.633 375.537 620.306 334.61 620.306C293.682 620.306 260.504 625.633 260.504 632.204C260.504 638.775 293.682 644.102 334.61 644.102Z" fill="#06CB90"/>
<path d="M419.925 317.596C419.907 317.52 419.867 317.452 419.811 317.398C418.678 316.281 404.228 295.853 404.228 295.853C404.228 295.853 403.467 293.572 402.235 290.607C402.63 290.096 402.927 289.516 403.11 288.896C403.176 288.634 403.224 288.367 403.254 288.098C403.254 288.014 403.315 287.946 403.338 287.862C403.602 286.831 403.576 285.747 403.262 284.73C403.177 284.991 403.073 285.245 402.95 285.49C402.664 284.605 402.281 283.753 401.809 282.951C399.893 279.652 397.155 276.869 395.139 273.653C392.088 268.657 390.875 262.753 391.709 256.958C391.709 257.255 391.709 257.559 391.709 257.855C391.786 256.706 391.938 255.563 392.166 254.434C392.483 253.149 392.908 251.893 393.436 250.678C395.246 246.535 398.174 242.924 399.953 238.765C400.551 237.363 401.004 235.903 401.307 234.409C401.934 231.914 402.163 229.335 401.984 226.768C401.984 227.377 401.885 227.985 401.794 228.585C401.602 222.415 399.109 216.538 394.805 212.111C388.591 205.869 379.67 203.444 371.137 202.167C367.551 201.748 364.127 200.442 361.174 198.365C357.896 196.244 353.66 195.735 349.827 196.199C345.422 196.675 341.328 198.698 338.275 201.908C334.221 206.363 332.464 212.673 327.734 216.429C324.867 218.71 321.231 219.774 317.892 221.325C314.554 222.876 311.398 225.126 310.325 228.456C310.325 228.456 310.325 228.411 310.325 228.388V228.578L310.28 228.699C309.169 232.638 311.314 236.644 312.432 240.575C313.596 244.642 313.672 248.937 313.732 253.142C313.816 258.281 313.892 263.428 313.808 268.575C313.77 270.597 313.702 272.642 313.55 274.657C311.75 275.201 310.001 275.903 308.325 276.755C306.621 277.865 300.248 284.745 300.248 284.745L287.783 332.352L287.951 332.543L287.783 333.189L288.414 333.044C290.179 334.945 295.449 340.358 301.138 343.733L301.67 353.069C301.67 353.069 302.309 362.436 310.926 366.305C311.124 369.552 311.74 382.734 308.888 387.957C306.913 391.773 305.984 396.043 306.196 400.334C306.196 400.334 307.192 408.256 306.059 412.422C305.397 415.207 305.347 418.102 305.914 420.907C305.914 420.907 305.914 421.827 305.914 423.408C305.914 431.839 306.013 458.859 305.914 461.915C305.77 465.526 305.914 518.934 305.914 518.934C305.914 518.934 305.207 545.626 302.941 552.856C300.674 560.086 301.245 584.027 301.245 584.027C301.245 584.027 299.822 612.544 304.849 618.17C304.849 618.421 304.804 618.679 304.796 618.93C304.796 619.044 304.796 619.173 304.796 619.287C304.735 621.454 305.154 623.758 307.017 624.465C310.82 625.924 315.847 630.303 316.797 631.558C317.748 632.812 323.277 635.937 330.487 635.101C335.003 634.593 339.549 634.385 344.093 634.477C344.093 634.477 346.937 633.96 346.017 630.425C345.424 628.22 343.203 624.83 341.621 622.602C341.91 622.678 342.191 622.739 342.458 622.792L342.731 622.845H342.944C343.061 622.852 343.178 622.852 343.294 622.845H343.446C343.588 622.857 343.73 622.857 343.872 622.845C345.781 622.663 352.9 625.978 354.17 628.167C355.44 630.357 359.919 632.022 363.296 632.44C365.304 632.683 370.369 632.273 374.62 631.725C376.761 631.504 378.882 631.118 380.963 630.57C381.967 630.189 382.18 628.973 381.891 627.605C381.55 625.867 380.62 624.299 379.259 623.165C378.027 622.29 376.4 619.987 375.198 618.101L374.879 617.592C377.001 615.57 380.834 608.956 381.997 607.587C383.412 605.922 379.716 545.033 379.716 545.033V514.509L385.382 485.62L389.344 470.331L392.744 447.25C392.744 447.25 398.691 420.291 396.858 417.645C396.858 417.592 395.337 389.835 393.74 383.168C393.048 380.195 393.223 373.505 393.633 366.997C394.063 366.571 394.362 366.032 394.497 365.442C394.631 364.853 394.596 364.237 394.394 363.667C394.281 363.278 394.133 362.898 393.953 362.535C393.953 362.421 393.953 362.299 393.953 362.185C397.238 360.674 400.671 359.507 404.197 358.703C409.863 357.593 408.449 354.673 408.449 354.673C408.449 354.673 409.726 352.172 410.57 350.644C411.415 349.116 410.715 335.629 410.57 334.519C410.517 334.071 410.167 331.592 409.764 328.779C411.582 327.487 413.947 325.883 416.525 324.362C421.431 321.458 420.328 318.394 419.925 317.596ZM346.002 510.343C346.002 510.343 341.75 521.184 343.454 523.959C345.157 526.734 343.172 537.036 343.172 537.036L341.75 552.324C341.75 552.324 337.788 580.682 339.202 587.349C340.313 592.58 340.724 608.203 340.853 614.718C340.755 614.756 340.661 614.802 340.571 614.855L340.381 614.954C341.035 612.392 340.762 607.207 337.514 596.776L337.24 553.693C337.24 553.693 336.738 503.927 340.67 498.361C344.602 492.796 345.994 483.346 345.994 483.346C345.994 483.346 345.142 496.978 344.587 500.589C344.032 504.2 346.002 510.343 346.002 510.343ZM338.085 617.432C338.046 617.524 338.001 617.615 337.97 617.698L337.757 617.425C337.866 617.435 337.975 617.438 338.085 617.432Z" fill="url(#paint0_linear_411_271)"/>
<path d="M381.443 634.508C379.245 635.351 367.328 636.788 363.997 636.385C360.666 635.982 356.255 634.295 355 632.09C353.745 629.885 346.71 626.555 344.824 626.768C344.051 626.791 343.279 626.683 342.542 626.449C341.241 626.055 339.97 625.567 338.74 624.989C338.568 624.031 338.596 623.047 338.823 622.1C338.867 621.909 338.923 621.721 338.991 621.538C339.434 620.29 340.353 619.269 341.546 618.694L341.82 618.565C342.347 618.337 342.898 618.169 343.462 618.063C349.44 616.915 374.104 619.219 374.104 619.219C374.104 619.219 374.796 620.458 375.747 621.994C376.933 623.894 378.546 626.213 379.762 627.088C381.11 628.239 382.025 629.816 382.356 631.558C382.645 632.903 382.432 634.135 381.443 634.508Z" fill="white"/>
<path opacity="0.1" d="M381.443 634.508C379.245 635.352 367.336 636.788 364.004 636.386C360.673 635.983 356.262 634.287 355 632.09C353.737 629.893 346.718 626.555 344.832 626.768C342.945 626.981 338.747 624.989 338.747 624.989C338.747 624.989 338.093 621.948 339.995 619.873L343.797 622.572C343.797 622.572 353.973 625.727 355.859 628.654C357.745 631.581 361.183 633.215 366.149 633.512C369.861 633.755 378.386 632.311 382.379 631.588C382.645 632.904 382.44 634.135 381.443 634.508Z" fill="black"/>
<path d="M345.036 638.385C340.55 638.298 336.063 638.508 331.605 639.016C324.464 639.852 319.011 636.735 318.06 635.45C317.109 634.166 312.189 629.825 308.409 628.304C306.561 627.589 306.127 625.263 306.211 623.089C306.211 622.975 306.211 622.845 306.211 622.731C306.281 621.354 306.485 619.987 306.819 618.649L336.411 618.018L338.974 621.492L339.37 622.024L340.929 624.146C340.929 624.146 341.636 625.073 342.564 626.426C344.131 628.707 346.321 632.075 346.907 634.302C347.842 637.868 345.036 638.385 345.036 638.385Z" fill="white"/>
<path opacity="0.1" d="M345.036 638.385C340.55 638.298 336.063 638.508 331.605 639.016C324.471 639.852 319.011 636.735 318.068 635.45C317.124 634.165 312.189 629.786 308.409 628.319C306.561 627.604 306.127 625.278 306.211 623.104C308.325 623.598 312.767 624.86 314.508 627.057C316.79 629.992 320.874 634.926 326.677 635.237C331.362 635.488 342.769 634.652 346.952 634.318C347.85 637.868 345.036 638.385 345.036 638.385Z" fill="black"/>
<path opacity="0.1" d="M341.516 618.664C341.173 621.203 340.116 621.887 339.356 622.04C339.17 622.076 338.979 622.076 338.793 622.04C338.693 622.032 338.594 622.017 338.496 621.994C338.496 621.994 311.923 627.863 306.554 623.111C306.418 622.989 306.291 622.857 306.174 622.716C306.244 621.339 306.448 619.972 306.782 618.634L336.374 618.003L338.937 621.477C339.381 620.23 340.3 619.208 341.493 618.634L341.516 618.664Z" fill="black"/>
<path opacity="0.1" d="M375.739 621.963C375.146 622.617 374.651 622.99 374.34 622.861C372.94 622.298 361.472 620.344 357.829 622.024C354.186 623.704 341.858 622.298 341.858 622.298C341.858 622.298 341.858 620.838 341.789 618.497C342.316 618.269 342.867 618.101 343.432 617.995C349.41 616.847 374.073 619.151 374.073 619.151C374.073 619.151 374.796 620.428 375.739 621.963Z" fill="black"/>
<path d="M393.095 449.994L389.733 473.212L385.824 488.6L380.227 517.687V548.477C380.227 548.477 383.862 609.739 382.463 611.411C381.063 613.084 375.747 622.61 374.348 622.055C372.948 621.5 361.48 619.538 357.837 621.211C354.194 622.883 341.866 621.492 341.866 621.492C341.866 621.492 341.584 597.719 340.185 591.006C338.786 584.293 342.702 555.761 342.702 555.761L344.102 540.381C344.102 540.381 346.064 530.026 344.383 527.228C342.702 524.431 346.9 513.544 346.9 513.544C346.9 513.544 344.946 507.378 345.509 503.744C346.071 500.11 346.9 486.403 346.9 486.403C346.9 486.403 345.509 495.921 341.622 501.509C337.736 507.097 338.23 557.175 338.23 557.175L338.504 600.509C345.509 623.454 338.504 621.211 338.504 621.211C338.504 621.211 311.931 627.088 306.562 622.328C301.193 617.569 302.729 587.615 302.729 587.615C302.729 587.615 302.174 563.561 304.41 556.293C306.646 549.025 307.353 522.165 307.353 522.165C307.353 522.165 307.208 468.453 307.353 464.827C307.459 461.786 307.353 434.561 307.353 426.054C307.353 424.472 307.353 423.537 307.353 423.537L310.562 415.57L348.589 410.811H366.781C366.781 410.811 394.16 417.242 396.989 420.017C397.049 420.063 397.101 420.12 397.141 420.185C398.974 422.868 393.095 449.994 393.095 449.994Z" fill="#06CB90"/>
<path opacity="0.1" d="M346.922 571.954C346.922 571.954 355.288 592.093 359.235 593.492C363.182 594.891 346.922 571.954 346.922 571.954Z" fill="black"/>
<path opacity="0.1" d="M350.018 601.604C350.018 601.604 378.264 603.003 377.982 606.082C377.701 609.161 350.018 601.604 350.018 601.604Z" fill="black"/>
<path opacity="0.1" d="M312.227 593.553C313.345 594.609 333.772 596.594 332.092 598.525C330.411 600.456 313.907 604.212 313.907 604.212L312.227 593.553Z" fill="black"/>
<path opacity="0.1" d="M308.873 558.809C308.873 559.645 313.071 585.661 314.197 586.779C315.322 587.896 324.548 589.014 324.548 589.014L308.873 558.809Z" fill="black"/>
<path d="M339.333 203.208C335.325 207.686 333.591 214.034 328.921 217.82C326.084 220.101 322.495 221.188 319.194 222.739C315.893 224.29 312.623 226.654 311.642 230.167C310.547 234.12 312.661 238.157 313.771 242.11C314.92 246.201 314.988 250.473 315.057 254.753C315.133 259.931 315.216 265.108 315.125 270.285C314.988 278.352 314.319 286.79 310.037 293.625C325.499 298.544 341.941 299.213 358.156 299.844C361.272 300.066 364.402 299.987 367.503 299.608C370.19 299.073 372.847 298.401 375.465 297.594C380.642 296.225 385.976 295.542 391.33 295.564C393.665 295.564 396.045 295.708 398.296 295.1C400.548 294.492 402.715 292.933 403.323 290.683C403.863 288.661 403.073 286.509 402.038 284.692C400.152 281.377 397.475 278.61 395.452 275.341C393.387 271.888 392.162 267.998 391.875 263.985C391.588 259.972 392.248 255.948 393.802 252.237C395.597 248.063 398.487 244.429 400.251 240.248C402.058 235.758 402.539 230.845 401.636 226.09C400.732 221.336 398.483 216.941 395.155 213.426C389.018 207.146 380.211 204.713 371.784 203.421C368.236 203.002 364.851 201.695 361.943 199.62C358.711 197.491 354.52 196.974 350.733 197.445C346.364 197.935 342.317 199.981 339.333 203.208Z" fill="#3F3D56"/>
<g opacity="0.1">
<path d="M394.037 247.85C392.487 251.514 391.822 255.491 392.098 259.459C392.268 256.622 392.924 253.834 394.037 251.218C395.825 247.044 398.715 243.41 400.479 239.229C401.921 235.737 402.528 231.957 402.251 228.19C402.094 230.831 401.495 233.426 400.479 235.869C398.715 240.05 395.825 243.676 394.037 247.85Z" fill="black"/>
<path d="M315.286 253.719C315.332 256.7 315.377 259.687 315.385 262.668C315.385 258.562 315.347 254.464 315.286 250.367C315.225 246.117 315.149 241.814 314.001 237.716C313.24 235.116 312.115 232.478 311.719 229.855C311.042 233.58 312.966 237.359 314.001 241.076C315.149 245.136 315.225 249.47 315.286 253.719Z" fill="black"/>
<path d="M398.555 290.751C396.274 291.367 393.931 291.23 391.597 291.215C386.246 291.181 380.915 291.851 375.74 293.207C373.121 294.011 370.463 294.68 367.777 295.214C364.674 295.599 361.541 295.681 358.422 295.457C342.755 294.842 326.868 294.18 311.863 289.702C311.417 290.696 310.909 291.661 310.342 292.591C325.803 297.502 342.246 298.179 358.453 298.81C361.571 299.033 364.704 298.952 367.807 298.567C370.484 298.038 373.132 297.371 375.74 296.567C380.904 295.206 386.225 294.529 391.566 294.553C393.901 294.553 396.274 294.697 398.525 294.081C400.776 293.465 402.944 291.922 403.552 289.672C403.808 288.63 403.782 287.538 403.476 286.509C402.799 288.638 400.708 290.12 398.555 290.751Z" fill="black"/>
</g>
<path d="M376.027 281.742C375.464 283.004 373.092 293.906 372.529 295.024C371.966 296.142 368.893 314.03 368.612 315.034C368.331 316.037 348.359 310.837 348.359 310.837L336.335 300.764L323.977 288.471C323.977 288.471 323.612 277.379 332.715 273.821C333.334 273.578 333.969 273.379 334.616 273.228C345.659 270.574 344.549 237.009 344.549 237.009L367.213 246.793C367.213 246.793 363.015 266.378 363.159 270.156C363.197 271.426 364.193 272.216 365.494 272.695C367.505 273.267 369.598 273.493 371.685 273.364C371.685 273.364 376.59 280.488 376.027 281.742Z" fill="#FBBEBE"/>
<path d="M416.602 318.523L419.819 319.367C419.819 319.367 422.2 322.986 416.602 326.354C413.048 328.512 409.636 330.897 406.388 333.493L389.847 338.526L386.66 328.528L402.053 316.851L416.602 318.523Z" fill="#06CB90"/>
<path opacity="0.1" d="M416.602 318.523L419.819 319.367C419.819 319.367 422.2 322.986 416.602 326.354C413.048 328.512 409.636 330.897 406.388 333.493L389.847 338.526L386.66 328.528L402.053 316.851L416.602 318.523Z" fill="black"/>
<path d="M295.883 328.179L289.449 334.474C289.449 334.474 301.055 347.9 309.983 348.736C318.912 349.572 324.669 338.526 324.669 338.526L316.942 326.362L295.883 328.179Z" fill="#06CB90"/>
<path opacity="0.1" d="M295.883 328.179L289.449 334.474C289.449 334.474 301.055 347.9 309.983 348.736C318.912 349.572 324.669 338.526 324.669 338.526L316.942 326.362L295.883 328.179Z" fill="black"/>
<path opacity="0.1" d="M357 258.942C369.361 258.942 379.382 248.925 379.382 236.568C379.382 224.211 369.361 214.194 357 214.194C344.638 214.194 334.617 224.211 334.617 236.568C334.617 248.925 344.638 258.942 357 258.942Z" fill="black"/>
<path d="M357 257.262C369.361 257.262 379.382 247.245 379.382 234.888C379.382 222.531 369.361 212.514 357 212.514C344.638 212.514 334.617 222.531 334.617 234.888C334.617 247.245 344.638 257.262 357 257.262Z" fill="#FBBEBE"/>
<path opacity="0.1" d="M397.154 422.724C392.058 423.307 387.038 424.431 382.18 426.077C373.814 428.859 308.256 426.122 307.344 426.077C307.344 424.495 307.344 423.56 307.344 423.56L310.553 415.593L348.58 410.833H366.771C366.771 410.833 394.15 417.265 396.98 420.04C397.094 421.713 397.154 422.724 397.154 422.724Z" fill="black"/>
<path opacity="0.1" d="M376.027 281.742C375.464 283.004 373.092 293.906 372.529 295.024C371.966 296.142 368.893 314.03 368.612 315.034C368.331 316.037 348.359 310.837 348.359 310.837L336.335 300.764L323.977 288.471C323.977 288.471 323.612 277.378 332.715 273.82L355.318 299.798L365.494 272.695C367.505 273.267 369.598 273.493 371.685 273.364C371.685 273.364 376.59 280.488 376.027 281.742Z" fill="black"/>
<path d="M355.319 300.635L332.184 274.026C330.83 273.162 329.282 272.647 327.68 272.529C326.077 272.411 324.471 272.693 323.004 273.349C317.825 275.592 311.391 277.409 309.71 278.527C308.03 279.644 301.732 286.562 301.732 286.562L320.487 335.606L312.228 367.909C312.228 367.909 313.49 384.415 310.273 390.428C308.314 394.273 307.397 398.564 307.611 402.874C307.611 402.874 308.592 410.849 307.474 415.038C306.821 417.838 306.772 420.746 307.33 423.568C307.33 423.568 373.792 426.365 382.181 423.568C387.038 421.917 392.059 420.793 397.156 420.215C397.156 420.215 395.635 392.238 394.114 385.525C392.593 378.812 395.376 353.221 395.376 353.221L393.559 325.807L404.465 297.677C404.465 297.677 398.555 279.644 392.395 277.827C392.395 277.827 381.208 275.166 378.827 273.912C376.447 272.657 369.45 271.532 369.45 271.532L365.776 272.764L355.319 300.635Z" fill="#06CB90"/>
<path opacity="0.1" d="M387.597 324.881L338.914 321.572C337.682 321.488 336.616 322.419 336.532 323.65L331.305 400.486C331.222 401.718 332.152 402.784 333.384 402.868L382.067 406.177C383.3 406.261 384.366 405.33 384.45 404.099L389.677 327.263C389.76 326.031 388.829 324.965 387.597 324.881Z" fill="black"/>
<path d="M389.273 323.212L340.59 319.903C339.358 319.819 338.291 320.75 338.208 321.981L332.981 398.818C332.897 400.049 333.828 401.116 335.06 401.199L383.743 404.509C384.975 404.592 386.042 403.662 386.126 402.43L391.352 325.594C391.436 324.362 390.505 323.296 389.273 323.212Z" fill="#3F3D56"/>
<path d="M387.668 329.235L341.367 326.088L336.609 396.037L382.91 399.184L387.668 329.235Z" fill="white"/>
<path opacity="0.1" d="M383.516 347.089L345.695 344.443L344.957 354.98L382.779 357.626L383.516 347.089Z" fill="black"/>
<path opacity="0.1" d="M382.146 388.963L376.145 388.555L375.771 394.047L381.773 394.455L382.146 388.963Z" fill="black"/>
<path opacity="0.1" d="M376.227 375.71L345.504 373.621L345.13 379.113L375.853 381.201L376.227 375.71Z" fill="black"/>
<path d="M381.937 326.62L349.947 324.445L349.373 332.887L381.363 335.062L381.937 326.62Z" fill="#3F3D56"/>
<path opacity="0.1" d="M381.937 326.62L349.947 324.445L349.373 332.887L381.363 335.062L381.937 326.62Z" fill="black"/>
<path opacity="0.1" d="M358.117 421.18C358.117 421.18 357.835 462.584 346.922 486.357C346.922 486.357 360.079 455.027 360.079 453.773C360.079 452.518 367.35 439.366 365.403 435.45C363.456 431.535 358.117 421.18 358.117 421.18Z" fill="black"/>
<path opacity="0.1" d="M358.711 229.292C358.293 225.628 359.191 221.934 361.244 218.869C361 221.941 361.869 224.998 363.692 227.482C365.516 229.967 368.172 231.713 371.176 232.402C370.92 232.179 370.737 231.885 370.652 231.556C370.566 231.228 370.582 230.881 370.697 230.562C372.256 232.326 373.45 234.417 375.215 235.968C376.979 237.518 379.626 238.446 381.702 237.344C384.524 235.823 384.554 231.817 383.824 228.699C382.257 222.061 379.043 215.925 374.477 210.856C373.338 209.324 371.859 208.077 370.157 207.211C368.455 206.346 366.576 205.887 364.666 205.869C360.346 205.535 355.859 205.915 351.988 207.853C349.81 209.042 347.769 210.467 345.904 212.103L335.257 220.785C334.232 221.523 333.355 222.446 332.671 223.507C332.214 224.394 331.94 225.363 331.865 226.358C331.593 229.201 332.119 232.064 333.385 234.625C334.65 237.186 336.605 239.344 339.029 240.856C338.978 238.609 339.596 236.397 340.805 234.502C342.015 232.606 343.76 231.113 345.82 230.212C346.143 230.482 346.404 230.818 346.587 231.197C346.769 231.576 346.868 231.989 346.878 232.41L349.121 228.411C349.455 227.683 349.981 227.06 350.642 226.609C352.026 225.849 353.753 226.746 354.932 227.818C356.11 228.89 357.259 230.228 358.841 230.395L358.901 224.442" fill="black"/>
<path d="M358.71 228.456C358.291 224.789 359.188 221.092 361.243 218.025C360.558 224.108 365.144 230.387 371.183 231.558C370.926 231.337 370.743 231.044 370.657 230.717C370.571 230.389 370.588 230.044 370.703 229.726C372.263 231.49 373.457 233.573 375.221 235.131C376.985 236.69 379.632 237.61 381.708 236.5C384.53 234.979 384.56 230.973 383.83 227.863C382.263 221.225 379.049 215.088 374.483 210.02C373.067 208.294 371.281 206.907 369.258 205.96C367.794 205.419 366.255 205.106 364.695 205.033C360.376 204.698 355.888 205.071 352.017 207.009C349.84 208.203 347.8 209.631 345.933 211.267L335.286 219.949C334.26 220.685 333.382 221.608 332.7 222.671C332.242 223.557 331.968 224.527 331.894 225.522C331.622 228.364 332.149 231.226 333.414 233.785C334.68 236.345 336.634 238.501 339.058 240.012C339.009 237.765 339.628 235.554 340.837 233.659C342.046 231.765 343.79 230.271 345.849 229.368C346.171 229.639 346.431 229.975 346.614 230.354C346.796 230.732 346.896 231.145 346.907 231.566L349.143 227.582C349.474 226.853 350.001 226.23 350.664 225.78C352.048 225.02 353.774 225.917 354.953 226.989C356.132 228.061 357.28 229.391 358.862 229.566L358.923 223.606" fill="#3F3D56"/>
<path d="M369.311 369.582C367.357 368.594 335.034 373.634 335.034 373.634C335.034 373.634 329.711 372.114 316.843 370C303.974 367.887 303.153 355.312 303.153 355.312L301.746 330.14L306.089 326.339L324.691 338.503C324.691 338.503 324.98 344.653 324.691 345.763C324.509 346.524 324.022 347.428 324.068 348.044C324.082 348.211 324.15 348.368 324.263 348.492C324.376 348.616 324.526 348.699 324.691 348.728C325.954 349.048 343.157 351.83 343.157 351.83C343.157 351.83 383.031 349.101 392.971 362.527C393.759 363.512 394.355 364.637 394.728 365.842C397.192 375.018 371.083 370.456 369.311 369.582Z" fill="#FBBEBE"/>
<path opacity="0.1" d="M394.751 365.895C393.23 366.571 392.287 367.058 392.287 367.058C392.287 367.058 378.02 366.64 370.004 363.736C361.988 360.832 352.245 361.349 352.245 361.349C352.245 361.349 318.843 355.601 324.022 348.097C324.036 348.264 324.105 348.421 324.218 348.545C324.331 348.669 324.481 348.752 324.646 348.782C325.908 349.101 343.111 351.883 343.111 351.883C343.111 351.883 382.986 349.154 392.926 362.58C393.738 363.56 394.357 364.685 394.751 365.895Z" fill="black"/>
<path d="M408.624 321.602C408.624 321.602 410.586 335.447 410.723 336.572C410.86 337.697 411.567 351.252 410.723 352.796C409.879 354.339 408.624 356.848 408.624 356.848C408.624 356.848 410.023 359.782 404.426 360.908C398.828 362.033 392.257 365.378 392.257 365.378C392.257 365.378 377.982 364.96 370.012 362.025C362.041 359.091 352.246 359.646 352.246 359.646C352.246 359.646 309.846 352.37 328.038 343.49C346.23 334.61 359.098 346.638 359.098 346.638L379.381 345.383C379.381 345.383 386.941 340.761 389.04 341.187C390.522 341.375 392.028 341.132 393.375 340.487L393.52 325.799L408.624 321.602Z" fill="#FBBEBE"/>
<path opacity="0.1" d="M305.771 287.619L301.71 287.406L289.404 335.302C289.404 335.302 302.691 331.942 308.417 335.302C314.144 338.663 324.647 339.354 324.647 339.354L320.73 301.174L305.771 287.619Z" fill="black"/>
<path d="M305.771 286.775L301.71 286.562L289.404 334.458C289.404 334.458 302.691 331.098 308.417 334.458C314.144 337.819 324.647 338.511 324.647 338.511L320.73 300.331L305.771 286.775Z" fill="#06CB90"/>
<path opacity="0.1" d="M398.836 297.267L404.425 298.529C404.425 298.529 418.701 319.056 419.819 320.204C420.937 321.352 414.495 325.525 411.841 325.525C409.186 325.525 396.174 327.046 392.394 330.558C388.614 334.071 390.188 316.395 390.188 315.992C390.188 315.589 394.881 304.436 394.881 304.436L398.836 297.267Z" fill="black"/>
<path d="M398.836 296.43L404.425 297.685C404.425 297.685 418.701 318.25 419.819 319.367C420.937 320.485 414.495 324.689 411.841 324.689C409.186 324.689 396.174 326.21 392.394 329.722C388.614 333.234 390.188 315.558 390.188 315.156C390.188 314.753 394.911 303.562 394.911 303.562L398.836 296.43Z" fill="#06CB90"/>
<g opacity="0.1">
<path d="M361.204 218.094C361.171 217.511 361.184 216.926 361.242 216.345C360.084 218.082 359.288 220.034 358.9 222.085V223.849C358.9 223.849 358.9 223.811 358.9 223.788V224.206C358.9 225.438 358.9 226.677 358.862 227.909H358.755V228.479C358.755 228.281 358.755 228.091 358.717 227.894C357.196 227.65 356.109 226.373 354.976 225.354C353.842 224.336 352.07 223.362 350.686 224.146C350.023 224.595 349.497 225.218 349.165 225.947L346.906 229.931C346.896 229.512 346.797 229.1 346.615 228.722C346.432 228.344 346.171 228.01 345.849 227.742C343.789 228.643 342.043 230.136 340.834 232.031C339.625 233.926 339.006 236.138 339.058 238.385C336.98 237.084 335.241 235.306 333.986 233.201C332.731 231.095 331.996 228.721 331.84 226.274C331.708 229.006 332.307 231.723 333.576 234.146C334.845 236.569 336.737 238.61 339.058 240.058C339.008 237.811 339.628 235.6 340.837 233.705C342.046 231.81 343.79 230.317 345.849 229.414C346.171 229.685 346.431 230.021 346.613 230.399C346.796 230.778 346.895 231.191 346.906 231.611L349.142 227.627C349.474 226.899 350 226.275 350.663 225.826C352.047 225.065 353.774 225.963 354.953 227.035C356.132 228.106 357.28 229.437 358.862 229.612C358.862 227.665 358.882 225.724 358.923 223.788C359.296 221.757 360.071 219.821 361.204 218.094Z" fill="black"/>
<path d="M358.634 225.75C358.672 225.233 358.733 224.716 358.809 224.229L358.893 222.131C358.664 223.323 358.577 224.537 358.634 225.75Z" fill="black"/>
<path d="M381.708 234.82C379.632 235.929 376.985 235.002 375.221 233.451C373.457 231.9 372.263 229.809 370.704 228.046C370.588 228.365 370.572 228.711 370.658 229.04C370.743 229.368 370.926 229.663 371.183 229.885C371.031 229.885 370.886 229.809 370.742 229.771C372.263 231.52 373.472 233.573 375.221 235.093C376.97 236.614 379.632 237.572 381.708 236.462C383.785 235.352 384.378 232.752 384.195 230.22C384.058 232.212 383.343 233.938 381.708 234.82Z" fill="black"/>
<path d="M370.696 229.756C368.153 229.063 365.883 227.61 364.189 225.591C362.495 223.572 361.459 221.083 361.22 218.459C360.787 224.427 365.289 230.41 371.183 231.558C370.932 231.34 370.752 231.052 370.665 230.731C370.578 230.41 370.589 230.071 370.696 229.756Z" fill="black"/>
</g>
<path d="M735.932 354.012C735.932 354.012 732.935 353.594 732.935 349.238C732.935 344.881 730.79 336.724 730.79 336.724C730.79 336.724 728.935 322.53 726.372 320.28C723.809 318.029 720.516 304.816 720.516 304.816C720.516 304.816 719.953 297.647 718.804 296.104C717.656 294.56 716.105 290.782 713.815 285.392C711.526 280.001 702.004 276.307 702.004 276.307C702.004 276.307 684.748 266.302 679.858 263.04C679.411 262.77 678.993 262.454 678.611 262.097C677.759 260.987 674.047 260.965 674.047 260.965C673.66 258.509 673.287 255.696 673.165 253.149C673.165 252.876 673.165 252.602 673.165 252.328C678.618 249.106 682.725 244.026 684.733 238.02C684.824 237.731 684.9 237.435 684.984 237.138C685.318 237.035 685.626 236.863 685.888 236.632C686.15 236.402 686.36 236.118 686.505 235.8C686.938 234.819 686.954 233.679 687.501 232.759C688.14 231.68 689.357 231.102 690.315 230.296C692.734 228.236 693.357 224.777 693.243 221.637C693.167 219.082 692.756 216.513 692.916 213.981C692.916 213.768 692.916 213.555 692.962 213.342C693.007 212.97 693.061 212.582 693.129 212.217C693.502 210.332 694.315 208.553 694.772 206.683C695.228 204.812 695.274 202.706 694.209 201.095C692.65 198.73 689.402 198.259 686.55 198.054C683.318 197.78 680.466 198.13 678.36 195.446C677.393 194.044 676.304 192.731 675.105 191.523C674.679 191.128 670.541 188.596 670.541 188.436C666.493 186.555 661.901 186.201 657.612 187.44C655.46 188.064 653.445 189.083 651.262 189.592C646.577 190.702 641.177 189.501 637.192 192.184C634.972 193.705 633.641 196.13 632.393 198.479C631.379 200.415 630.35 202.354 629.306 204.295C627.617 207.481 625.914 210.719 625.206 214.247C625.058 215.018 624.964 215.797 624.925 216.581C624.925 216.862 624.925 217.144 624.925 217.425C624.925 217.547 624.925 217.668 624.925 217.79C624.925 218.048 624.925 218.307 624.971 218.55C625.016 218.793 624.971 218.862 625.024 219.021C625.077 219.181 625.092 219.538 625.138 219.782C625.183 220.025 625.275 220.458 625.366 220.785C625.366 220.93 625.457 221.067 625.503 221.211C625.549 221.355 625.67 221.72 625.769 221.971C625.868 222.222 625.876 222.237 625.936 222.367C626.05 222.633 626.187 222.891 626.324 223.127C626.385 223.226 626.431 223.324 626.492 223.423C626.7 223.779 626.934 224.12 627.191 224.442C628.811 226.472 631.214 227.764 632.987 229.665C632.987 229.741 632.987 229.817 632.987 229.893C632.987 230.098 632.987 230.304 632.987 230.516C633.095 234.756 634.238 238.904 636.316 242.601C638.395 246.298 641.345 249.431 644.912 251.728C644.912 252.016 644.95 252.313 644.965 252.609C645.113 254.864 645.085 257.126 644.881 259.376C644.571 259.012 644.183 258.722 643.746 258.527C643.309 258.333 642.834 258.238 642.356 258.251C642.029 258.234 641.702 258.262 641.383 258.334L641.314 258.281V258.349C639.641 258.76 637.58 260.501 635.61 265.45C635.61 265.45 629.617 272.201 625.054 271.92C620.491 271.639 608.939 278.952 608.939 278.952C608.939 278.952 597.668 286.258 595.249 293.709C593.897 297.935 592.274 302.069 590.389 306.086L576.418 334.762L573.855 357.57C573.855 357.57 575.278 367.689 574.996 369.24C574.715 370.791 580.845 384.704 580.845 384.704C580.845 384.704 601.098 420.268 609.372 422.093L609.965 421.682C610.321 421.862 610.696 421.999 611.083 422.093L612.787 420.899C612.892 422.236 612.846 423.58 612.65 424.906C611.517 428.426 613.084 451.34 615.076 455.833C617.069 460.326 616.361 519.246 616.361 519.246L616.08 524.438C616.08 524.438 616.08 524.605 616.148 524.894L616.08 526.126L616.285 526.232C616.498 527.884 616.429 529.56 616.08 531.189C615.365 533.47 615.076 539.909 615.076 539.909C615.076 539.909 609.372 576.31 612.08 583.624C614.787 590.937 617.076 598.951 617.076 598.951C617.076 598.951 619.928 608.074 617.213 609.594C614.498 611.115 606.809 613.814 608.376 617.607C609.821 621.12 615.304 630.531 616.118 631.908L616.05 632.668L614.932 644.779C615.113 646.378 615.546 647.938 616.217 649.401C617.441 652.047 619.814 654.776 624.347 654.479C625.107 654.426 625.982 654.343 626.841 654.229C635.124 653.111 645.315 649.416 645.315 649.416C644.786 649.082 644.303 648.68 643.877 648.223C643.47 647.828 643.148 647.355 642.929 646.833C642.711 646.31 642.601 645.748 642.607 645.182C642.729 642.969 638.599 632.47 637.565 629.878L637.329 629.3C637.329 629.3 646.744 619.455 645.178 610.742C645.178 610.742 634.759 604.66 638.189 601.315C641.619 597.97 647.748 588.391 647.748 588.391C647.748 588.391 648.03 552.545 647.748 547.2C647.455 543.483 647.631 539.743 648.273 536.07C648.387 535.523 648.524 534.983 648.669 534.443C653.416 535.159 658.211 535.523 663.012 535.53C664.766 535.53 666.541 535.495 668.336 535.424C668.336 535.931 668.359 536.478 668.404 537.066C668.8 545.946 669.537 561.523 670.138 567.309C670.99 575.596 675.698 597.955 675.698 597.955C675.698 597.955 666.716 603.71 677.264 617.919C677.264 617.919 677.264 623.058 676.565 623.811C675.817 626.249 675.215 628.729 674.762 631.238C674.321 633.907 674.139 636.621 674.854 638.02C676.565 641.38 686.832 641.107 686.832 641.107C686.914 641.087 686.998 641.075 687.083 641.069C689.021 640.864 690.98 641.047 692.846 641.609C694.712 642.17 696.448 643.098 697.951 644.338C701.852 647.47 716.652 646.102 724.676 645.098C727.817 644.695 729.916 644.338 729.916 644.338C730.017 643.982 730.053 643.611 730.022 643.243C729.939 641.274 728.395 636.956 717.93 633.101C717.93 633.101 708.089 626.487 708.226 620.724H708.005H706.872C707.587 620.701 708.089 620.701 708.089 620.701C708.089 620.701 704.233 606.644 705.807 605.496C707.381 604.348 702.666 588.771 702.666 588.771C702.666 588.771 699.966 562.618 699.814 560.793C699.824 559.221 700.065 557.658 700.529 556.156L699.814 541.81C699.814 541.81 699.677 537.043 699.814 535.492C699.799 534.146 699.692 532.802 699.495 531.47C699.426 530.938 699.358 530.383 699.282 529.836C702.97 528.901 705.366 528.042 705.366 528.042L704.94 478.131C708.073 472.049 708.651 458.699 708.636 449.241C708.636 443.159 708.362 438.659 708.362 438.659L712.644 431.672C712.644 431.672 713.633 423.309 712.066 421.477C711.374 420.648 711.686 419.789 712.256 419.082C712.556 418.836 712.874 418.613 713.207 418.413C713.17 418.36 713.136 418.304 713.108 418.246C713.407 417.996 713.725 417.77 714.059 417.569C714.059 417.569 712.538 415.212 713.899 414.217C715.177 415.083 716.318 415.775 717.185 416.269C717.124 416.824 717.063 417.144 717.063 417.144L717.428 416.383C718.265 416.855 718.774 417.144 718.774 417.144C718.774 417.144 725.482 403.786 725.337 401.824C725.193 399.863 729.901 391.561 729.901 391.561C729.901 391.561 730.471 387.197 733.042 385.373C735.612 383.548 735.034 370.327 735.034 370.327C735.034 370.327 735.749 363.439 737.46 360.634C739.171 357.829 735.932 354.012 735.932 354.012ZM607.585 348.15L607.714 351.336C606.954 350.112 606.406 349.238 606.406 349.238L607.585 348.15Z" fill="url(#paint1_linear_411_271)"/>
<path d="M719.171 411.366L717.528 418.36C717.528 418.36 704.371 411.632 702.006 403.117C699.641 394.602 705.968 391.356 705.968 391.356L718.236 396.541L719.171 411.366Z" fill="white"/>
<path opacity="0.1" d="M719.171 411.366L717.528 418.36C717.528 418.36 704.371 411.632 702.006 403.117C699.641 394.602 705.968 391.356 705.968 391.356L718.236 396.541L719.171 411.366Z" fill="black"/>
<path d="M645.331 649.409C645.331 649.409 633.163 653.879 624.797 654.441C620.356 654.738 618.021 652.016 616.819 649.393C616.166 647.947 615.74 646.408 615.557 644.832L616.659 632.782L617.237 626.373L635.011 621.75L637.528 629.452L637.764 630.03C638.768 632.607 642.829 643.053 642.707 645.235C642.698 645.799 642.803 646.36 643.016 646.882C643.229 647.405 643.546 647.879 643.947 648.276C644.359 648.71 644.824 649.091 645.331 649.409Z" fill="white"/>
<path d="M728.411 643.281C728.442 643.649 728.406 644.02 728.304 644.376C728.304 644.376 702.279 648.709 696.955 644.376C695.459 643.11 693.715 642.17 691.834 641.616C689.954 641.062 687.978 640.907 686.034 641.16C686.034 641.16 675.965 641.434 674.284 638.119C673.584 636.728 673.767 634.029 674.2 631.375C674.643 628.88 675.232 626.412 675.965 623.986L676.368 623.666L678.763 621.743L706.812 620.914H707.025C706.888 626.647 716.539 633.223 716.539 633.223C726.814 637.024 728.327 641.319 728.411 643.281Z" fill="white"/>
<path opacity="0.1" d="M728.419 643.281C728.446 643.65 728.407 644.02 728.305 644.376C728.305 644.376 702.28 648.709 696.964 644.376C695.466 643.109 693.721 642.168 691.839 641.615C689.957 641.061 687.98 640.906 686.035 641.16C686.035 641.16 675.958 641.434 674.277 638.119C673.585 636.728 673.76 634.029 674.193 631.368C678.072 631.756 684.194 632.721 686.598 635.032C690.233 638.529 696.393 642.027 700.166 642.308C703.147 642.49 720.875 643.053 728.419 643.281Z" fill="black"/>
<path opacity="0.1" d="M645.331 649.409C645.331 649.409 633.162 653.879 624.796 654.441C620.355 654.738 618.02 652.016 616.818 649.393C619.921 650.435 624.218 651.522 626.477 650.526C629.154 649.333 638.646 648.572 643.969 648.245C644.371 648.69 644.828 649.081 645.331 649.409Z" fill="black"/>
<path d="M663.386 289.132C653.347 285.232 640.434 272.346 643.658 266.324C644.371 264.804 644.796 263.164 644.913 261.489C645.121 259.214 645.151 256.927 645.005 254.647C644.778 250.911 644.329 247.192 643.658 243.509C643.658 243.509 675 244.216 673.174 248.831C672.642 250.192 672.551 252.541 672.703 255.164C672.855 257.787 673.228 260.775 673.623 263.291C674.163 266.735 674.718 269.373 674.718 269.373C674.718 269.373 672.794 272.057 671.676 272.201C670.558 272.346 677.791 294.72 663.386 289.132Z" fill="#CF6F80"/>
<path opacity="0.1" d="M637.734 629.992L637.498 630.25C628.128 618.923 616.796 633.048 616.796 633.048L616.629 632.744L617.207 626.335L634.98 621.713L637.498 629.414L637.734 629.992Z" fill="black"/>
<path opacity="0.1" d="M707.04 621.713C707.04 621.713 700.195 621.576 696.544 624.799C692.894 628.023 675.25 625.491 676.01 624.799C676.232 624.448 676.368 624.05 676.406 623.636L678.801 621.713L706.85 620.884C706.956 621.416 707.04 621.713 707.04 621.713Z" fill="black"/>
<path d="M649.391 532.755C648.882 534.015 648.495 535.321 648.235 536.655C647.601 540.309 647.425 544.027 647.71 547.725C647.992 553.046 647.71 588.71 647.71 588.71C647.71 588.71 641.695 598.221 638.333 601.573C634.971 604.926 645.178 610.947 645.178 610.947C646.699 619.622 637.481 629.414 637.481 629.414C628.111 618.086 616.78 632.204 616.78 632.204C616.78 632.204 610.619 621.56 609.083 617.759C607.547 613.958 615.099 611.335 617.753 609.784C620.407 608.233 617.616 599.141 617.616 599.141C617.616 599.141 615.38 591.166 612.718 583.89C610.057 576.614 615.654 540.403 615.654 540.403C615.654 540.403 615.943 533.964 616.635 531.721C616.98 530.102 617.05 528.437 616.84 526.795C616.795 526.24 616.742 525.784 616.704 525.464C616.666 525.145 616.635 525.008 616.635 525.008L616.742 524.826L620.544 517.74C620.544 517.74 651.216 528.293 649.391 532.755Z" fill="#06CB90"/>
<path d="M707.039 620.876C707.039 620.876 700.195 620.732 696.544 623.917C692.893 627.103 675.249 624.617 676.01 623.917C676.77 623.218 676.702 618.048 676.702 618.048C666.351 603.915 675.181 598.183 675.181 598.183C675.181 598.183 670.564 575.945 669.728 567.697C669.142 561.941 668.42 546.409 668.032 537.613C667.865 533.812 667.766 531.189 667.766 531.189L676.147 529.524L677.234 529.311L697.632 525.214C697.632 525.214 698.194 529.015 698.575 532.124C698.767 533.451 698.871 534.79 698.886 536.131C698.757 537.651 698.886 542.418 698.886 542.418L699.586 556.68C699.135 558.178 698.899 559.732 698.886 561.295C699.031 563.12 701.685 589.128 701.685 589.128C701.685 589.128 706.302 604.652 704.727 605.77C703.153 606.888 707.039 620.876 707.039 620.876Z" fill="#06CB90"/>
<path opacity="0.1" d="M673.174 248.854C672.642 250.215 672.551 252.564 672.703 255.187C668.505 257.714 663.679 259.006 658.779 258.914C653.879 258.823 649.105 257.352 645.004 254.67C644.778 250.934 644.328 247.215 643.658 243.532C643.658 243.532 675 244.239 673.174 248.854Z" fill="black"/>
<path d="M685.274 232.067C685.356 238.965 682.694 245.613 677.874 250.549C673.053 255.485 666.468 258.305 659.568 258.387C652.667 258.47 646.017 255.809 641.079 250.99C636.141 246.171 633.321 239.589 633.238 232.691C633.238 232.478 633.238 232.28 633.238 232.067C633.238 225.168 635.98 218.55 640.861 213.671C645.742 208.792 652.361 206.052 659.264 206.052C666.166 206.052 672.785 208.792 677.666 213.671C682.547 218.55 685.289 225.168 685.289 232.067H685.274Z" fill="#CF6F80"/>
<path opacity="0.1" d="M663.386 289.132C653.347 285.232 640.434 272.346 643.658 266.324C644.371 264.804 644.796 263.165 644.913 261.489L658.656 272.787L667.159 279.758L673.623 263.314C674.163 266.758 674.718 269.396 674.718 269.396C674.718 269.396 672.794 272.08 671.676 272.224C670.558 272.368 677.791 294.72 663.386 289.132Z" fill="black"/>
<path d="M698.924 339.058L687.448 531.782L672.481 532.763L633.717 421.013L640.075 288.341L641.421 260.311L658.654 274.459L667.157 281.431L673.812 264.5L686.186 275.28L698.924 339.058Z" fill="#06CB90"/>
<path opacity="0.1" d="M649.392 532.755C648.883 534.015 648.496 535.321 648.236 536.655C637.335 534.977 626.747 531.674 616.826 526.856L616.621 526.749L616.69 525.525V524.887L620.492 517.801C620.492 517.801 651.218 528.293 649.392 532.755Z" fill="black"/>
<path opacity="0.1" d="M676.398 536.686C673.614 537.161 670.806 537.484 667.987 537.651C667.82 533.85 667.721 531.227 667.721 531.227L676.147 529.524L676.398 536.686Z" fill="black"/>
<path opacity="0.1" d="M698.606 532.124C693.199 533.531 684.84 535.112 677.372 534.124L677.266 529.311L697.663 525.214C697.663 525.214 698.203 528.984 698.606 532.124Z" fill="black"/>
<path opacity="0.1" d="M677.234 535.006C646.053 540.327 617.495 525.069 617.495 525.069L617.769 519.899C617.769 519.899 618.476 461.291 616.514 456.798C614.552 452.305 613.023 429.551 614.133 426.077C615.244 422.602 610.08 370.145 610.08 370.145L609.243 348.858L578.602 336.412L592.291 307.88C594.14 303.88 595.73 299.767 597.052 295.564C599.432 288.151 610.483 280.876 610.483 280.876C610.483 280.876 621.815 273.608 626.294 273.881C630.774 274.155 636.645 267.45 636.645 267.45C640.98 256.403 644.904 261.368 644.904 261.368C644.904 261.9 644.904 261.368 644.691 263.002C643.17 275.128 669.287 313.445 669.66 314.129L672.177 374.691L674.694 451.332L677.234 535.006Z" fill="black"/>
<path d="M676.398 535.006C645.216 540.327 616.651 525.069 616.651 525.069L616.932 519.899C616.932 519.899 617.632 461.291 615.67 456.798C613.708 452.305 612.179 429.528 613.297 426.023C614.415 422.519 609.22 370.114 609.22 370.114L608.376 348.827L577.742 336.382L591.432 307.85C593.276 303.851 594.866 299.74 596.193 295.541C598.573 288.151 609.662 280.868 609.662 280.868C609.662 280.868 620.993 273.6 625.465 273.874C629.937 274.147 635.839 267.45 635.839 267.45C640.182 256.403 644.965 261.368 644.965 261.368C644.965 261.9 644.509 262.128 644.752 263.002C648.099 274.763 668.511 313.445 668.884 314.129L671.401 374.691L673.865 451.37L676.398 535.006Z" fill="white"/>
<path opacity="0.1" d="M667.995 315.84C664.641 314.441 646.875 294.165 646.875 294.165V289.55C646.228 288.03 642.38 288.957 639.27 290.022L640.608 261.991L642.129 263.253C645.453 275.006 667.63 315.163 667.995 315.84Z" fill="black"/>
<path d="M668.838 314.167C665.477 312.761 647.711 292.492 647.711 292.492V287.87C647.064 286.35 643.224 287.277 640.105 288.341L641.421 260.341L642.942 261.596C646.296 273.334 668.466 313.483 668.838 314.167Z" fill="white"/>
<path opacity="0.1" d="M617.496 415.281C617.915 415.281 639.179 413.046 639.179 413.046C639.179 413.046 652.055 438.362 651.211 444.513C650.366 450.663 648.838 456.122 643.659 455.156C638.479 454.191 615.785 455.916 615.785 455.916L617.496 415.281Z" fill="black"/>
<path d="M616.651 413.601C617.077 413.601 638.341 411.366 638.341 411.366C638.341 411.366 651.209 436.72 650.372 442.802C649.536 448.884 647.992 454.411 642.82 453.446C637.649 452.48 614.939 454.206 614.939 454.206L616.651 413.601Z" fill="white"/>
<path d="M632.675 401.748C632.675 401.748 652.19 412.24 652.609 415.433C653.027 418.626 642.676 414.034 640.44 413.472C638.968 413.122 637.47 412.888 635.961 412.772L621.047 413.175L632.675 401.748Z" fill="#CF6F80"/>
<path opacity="0.1" d="M662.542 317.147C663.676 317.147 664.595 316.228 664.595 315.095C664.595 313.961 663.676 313.042 662.542 313.042C661.408 313.042 660.488 313.961 660.488 315.095C660.488 316.228 661.408 317.147 662.542 317.147Z" fill="black"/>
<path d="M662.542 316.311C663.676 316.311 664.595 315.392 664.595 314.258C664.595 313.125 663.676 312.206 662.542 312.206C661.408 312.206 660.488 313.125 660.488 314.258C660.488 315.392 661.408 316.311 662.542 316.311Z" fill="#3F3D56"/>
<path opacity="0.1" d="M666.321 406.006C667.455 406.006 668.374 405.087 668.374 403.953C668.374 402.819 667.455 401.9 666.321 401.9C665.187 401.9 664.268 402.819 664.268 403.953C664.268 405.087 665.187 406.006 666.321 406.006Z" fill="black"/>
<path d="M666.321 405.162C667.455 405.162 668.374 404.243 668.374 403.109C668.374 401.976 667.455 401.057 666.321 401.057C665.187 401.057 664.268 401.976 664.268 403.109C664.268 404.243 665.187 405.162 666.321 405.162Z" fill="#3F3D56"/>
<path opacity="0.1" d="M664.594 361.577C665.729 361.577 666.648 360.658 666.648 359.524C666.648 358.39 665.729 357.471 664.594 357.471C663.46 357.471 662.541 358.39 662.541 359.524C662.541 360.658 663.46 361.577 664.594 361.577Z" fill="black"/>
<path d="M664.594 360.74C665.729 360.74 666.648 359.821 666.648 358.688C666.648 357.554 665.729 356.635 664.594 356.635C663.46 356.635 662.541 357.554 662.541 358.688C662.541 359.821 663.46 360.74 664.594 360.74Z" fill="#3F3D56"/>
<path d="M711.93 412.346C711.93 412.346 713.33 414.445 711.93 415.387C710.531 416.33 712.067 418.748 712.067 418.748C712.067 418.748 708.576 420.785 710.113 422.633C711.649 424.48 710.675 432.774 710.675 432.774L706.477 439.761C706.477 439.761 706.728 444.239 706.743 450.291C706.743 459.733 706.188 473.007 703.116 479.059L703.526 528.711C703.526 528.711 688.825 534.086 676.52 532.444L674.695 452.769C674.695 452.769 677.357 407.587 678.338 398.92C678.912 394.421 679.146 389.884 679.037 385.35C679.037 385.35 678.619 371.787 677.212 365.5C677.212 365.5 675.691 338.222 675.539 330.672C675.47 327.061 675.661 316.524 675.874 306.504C676.109 295.549 676.376 285.217 676.376 285.217L673.6 263.253C673.6 263.253 676.376 262.979 677.212 264.089C677.587 264.439 677.994 264.752 678.429 265.024C683.228 268.263 700.157 278.222 700.157 278.222C700.157 278.222 709.527 281.948 711.771 287.285C714.014 292.622 715.573 296.408 716.661 297.928C717.748 299.449 718.341 306.595 718.341 306.595C718.341 306.595 721.566 319.747 724.083 321.975C726.601 324.203 728.411 338.343 728.411 338.343L706.165 355.829C706.165 355.829 704.211 384.916 703.793 386.042C703.374 387.167 711.93 412.346 711.93 412.346Z" fill="white"/>
<path d="M712.774 412.346C712.774 412.346 714.166 414.445 712.774 415.387C711.382 416.33 712.903 418.748 712.903 418.748C712.903 418.748 709.412 420.785 710.949 422.633C712.485 424.48 711.511 432.774 711.511 432.774L707.328 439.761C707.328 439.761 707.579 444.239 707.602 450.291C707.602 459.733 707.047 473.007 703.974 479.059L704.393 528.711C704.393 528.711 689.692 534.086 677.386 532.444L675.569 452.769C675.569 452.769 678.223 407.587 679.212 398.92C679.787 394.421 680.018 389.884 679.904 385.35C679.904 385.35 679.485 371.787 678.086 365.5C678.086 365.5 676.565 338.222 676.405 330.672C676.337 327.061 676.527 316.524 676.74 306.504C676.976 295.549 677.242 285.217 677.242 285.217L673.576 262.957C673.576 262.957 677.242 262.957 678.086 264.089C678.457 264.443 678.865 264.757 679.303 265.024C684.094 268.263 701.024 278.222 701.024 278.222C701.024 278.222 710.371 281.948 712.652 287.285C714.934 292.622 716.455 296.408 717.542 297.928C718.63 299.449 719.223 306.595 719.223 306.595C719.223 306.595 722.448 319.747 724.965 321.975C727.482 324.203 729.3 338.343 729.3 338.343L707.055 355.829C707.055 355.829 705.1 384.916 704.674 386.042C704.248 387.167 712.774 412.346 712.774 412.346Z" fill="white"/>
<path opacity="0.1" d="M686.134 291.671L688.149 297.525L677.57 308.169C677.806 297.214 678.072 286.882 678.072 286.882L674.406 264.629C674.406 264.629 678.072 264.629 678.916 265.762C679.287 266.116 679.695 266.429 680.133 266.697L689.122 292.614L686.134 291.671Z" fill="black"/>
<path d="M685.274 289.991L687.29 295.837L676.718 306.481C676.946 295.526 677.22 285.194 677.22 285.194L673.547 262.934C673.547 262.934 677.22 262.934 678.057 264.066C678.43 264.418 678.838 264.732 679.274 265.002L688.316 290.941L685.274 289.991Z" fill="white"/>
<path opacity="0.1" d="M685.274 232.067C685.277 234.807 684.845 237.529 683.996 240.134C683.853 240.158 683.706 240.152 683.565 240.118C683.424 240.085 683.291 240.022 683.175 239.936C682.969 233.094 679.608 226.662 675.463 221.196C674.297 219.547 672.887 218.086 671.28 216.862C669.653 215.642 667.631 215.07 665.606 215.258C663.325 215.57 661.309 217.121 659.005 217.318C655.963 217.569 653.24 215.463 650.221 215.365C648.993 215.375 647.782 215.647 646.668 216.164C645.555 216.681 644.564 217.429 643.764 218.36C642.176 220.232 640.998 222.415 640.304 224.769C639.108 228.341 638.457 232.072 638.372 235.838C638.334 237.967 638.128 240.635 636.151 241.411C636.301 239.846 636.123 238.268 635.63 236.776C635.136 235.284 634.337 233.911 633.284 232.744L633.238 232.691C633.238 232.478 633.238 232.28 633.238 232.067C633.238 225.168 635.98 218.55 640.861 213.671C645.742 208.792 652.361 206.052 659.264 206.052C666.166 206.052 672.785 208.792 677.666 213.671C682.547 218.55 685.289 225.168 685.289 232.067H685.274Z" fill="black"/>
<path d="M670.063 190.763C666.111 188.905 661.616 188.553 657.423 189.775C655.317 190.398 653.332 191.409 651.195 191.918C646.631 193.021 641.308 191.827 637.391 194.496C635.216 196.016 633.908 198.419 632.691 200.76L629.649 206.546C627.991 209.716 626.318 212.939 625.626 216.429C624.934 219.919 625.352 223.826 627.565 226.639C629.17 228.677 631.558 229.962 633.307 231.885C634.358 233.058 635.154 234.435 635.647 235.931C636.139 237.426 636.316 239.007 636.167 240.575C638.144 239.814 638.342 237.131 638.387 235.002C638.473 231.236 639.124 227.505 640.319 223.933C641.013 221.579 642.192 219.396 643.779 217.524C644.579 216.592 645.569 215.842 646.683 215.324C647.797 214.806 649.008 214.532 650.236 214.521C653.278 214.627 656.009 216.733 659.02 216.475C661.302 216.285 663.325 214.734 665.622 214.422C667.647 214.23 669.671 214.803 671.295 216.026C672.903 217.246 674.312 218.708 675.471 220.36C679.623 225.833 682.992 232.235 683.19 239.1C684.049 239.723 685.289 238.902 685.715 237.929C686.141 236.956 686.156 235.815 686.696 234.888C687.32 233.816 688.514 233.238 689.449 232.432C691.822 230.387 692.415 226.943 692.324 223.819C692.233 220.694 691.624 217.524 692.217 214.452C692.575 212.575 693.381 210.803 693.822 208.941C694.263 207.078 694.317 204.987 693.275 203.383C691.754 201.034 688.552 200.563 685.761 200.342C682.589 200.068 679.752 200.418 677.729 197.75C676.777 196.359 675.709 195.052 674.535 193.842C674.117 193.439 670.063 190.93 670.063 190.763Z" fill="#512E4E"/>
<path opacity="0.1" d="M587.379 351.085L579.439 336.405L576.922 359.06C576.922 359.06 578.321 369.126 578.04 370.669C577.758 372.213 583.774 386.049 583.774 386.049C583.774 386.049 603.647 421.439 611.762 423.256L639.141 403.672L631.87 394.442C631.87 394.442 629.353 393.462 628.721 394.442C628.721 394.442 615.214 371.224 613.823 369.552C612.431 367.879 612.697 364.511 612.697 364.511C612.697 364.511 610.598 362.276 611.298 360.178C611.997 358.079 607.282 350.811 607.282 350.811L611.617 346.759L587.379 351.085Z" fill="black"/>
<path d="M579.857 334.724L577.758 336.405L575.24 359.06C575.24 359.06 576.64 369.126 576.358 370.669C576.077 372.213 582.1 386.049 582.1 386.049C582.1 386.049 601.965 421.439 610.08 423.256L637.505 403.672L630.226 394.442C630.226 394.442 627.709 393.462 627.078 394.442C627.078 394.442 613.578 371.224 612.179 369.552C610.78 367.879 611.061 364.511 611.061 364.511C611.061 364.511 608.962 362.276 609.662 360.178C610.361 358.079 605.6 350.811 605.6 350.811L609.936 346.759L579.857 334.724Z" fill="white"/>
<path opacity="0.1" d="M710.112 423.507C711.634 425.354 710.675 433.656 710.675 433.656L706.477 440.597C706.477 440.597 706.728 445.083 706.743 451.135L699.686 453.339C699.047 453.538 698.37 453.582 697.711 453.466C697.051 453.35 696.43 453.079 695.897 452.674C695.364 452.27 694.935 451.743 694.647 451.14C694.359 450.536 694.22 449.872 694.24 449.203L695.465 409.974L711.93 416.262C710.531 417.235 712.067 419.622 712.067 419.622C712.067 419.622 708.576 421.659 710.112 423.507Z" fill="black"/>
<path d="M710.949 422.671C712.47 424.51 711.512 432.812 711.512 432.812L707.329 439.761C707.329 439.761 707.58 444.239 707.603 450.291L700.416 452.533C699.791 452.729 699.13 452.772 698.485 452.66C697.841 452.548 697.233 452.283 696.712 451.888C696.191 451.493 695.772 450.979 695.49 450.389C695.208 449.799 695.072 449.15 695.092 448.496L696.316 409.13L712.774 415.433C711.367 416.406 712.903 418.793 712.903 418.793C712.903 418.793 709.413 420.823 710.949 422.671Z" fill="white"/>
<path d="M716.41 403.953C716.41 403.953 715.292 411.092 712.493 411.51C709.694 411.928 708.439 423.058 705.648 422.671C702.857 422.283 704.705 412.316 704.804 410.385C704.903 408.454 701.762 400.456 704.104 398.639C706.447 396.822 713.9 398.639 713.9 398.639L716.41 403.953Z" fill="#CF6F80"/>
<path opacity="0.1" d="M722.326 348.987L727.597 338.343C727.597 338.343 729.703 346.455 729.703 350.789C729.703 355.122 732.639 355.548 732.639 355.548C732.639 355.548 735.856 359.349 734.16 362.124C732.464 364.899 731.787 371.772 731.787 371.772C731.787 371.772 732.342 384.916 729.825 386.733C727.308 388.55 726.745 392.891 726.745 392.891C726.745 392.891 722.128 401.14 722.273 403.102C722.417 405.063 715.839 418.345 715.839 418.345C715.839 418.345 719.056 401.84 700.309 394.708C700.309 394.708 700.164 389.113 701.564 387.577C702.963 386.042 705.146 385.297 703.777 377.572C702.408 369.848 703.381 360.535 703.381 358.672C703.381 356.81 707.58 345.201 707.58 345.201L722.326 348.987Z" fill="black"/>
<path d="M724.67 336.823L729.279 338.343C729.279 338.343 731.385 346.455 731.385 350.789C731.385 355.122 734.321 355.548 734.321 355.548C734.321 355.548 737.538 359.349 735.842 362.124C734.146 364.899 733.461 371.772 733.461 371.772C733.461 371.772 734.024 384.916 731.507 386.733C728.99 388.55 728.465 392.891 728.465 392.891C728.465 392.891 723.848 401.14 723.993 403.102C724.137 405.063 717.551 418.345 717.551 418.345C717.551 418.345 720.768 401.84 702.021 394.708C702.021 394.708 701.884 389.113 703.284 387.577C704.683 386.042 706.866 385.297 705.497 377.572C704.128 369.848 705.101 360.535 705.101 358.672C705.101 356.81 709.3 345.201 709.3 345.201L724.67 336.823Z" fill="white"/>
<path opacity="0.1" d="M622.85 612.696C622.85 612.696 630.196 608.081 635.018 611.434C639.84 614.787 622.85 612.696 622.85 612.696Z" fill="black"/>
<path opacity="0.1" d="M679.949 598.426C679.949 598.426 686.452 597.59 691.912 603.467C697.373 609.343 679.949 598.426 679.949 598.426Z" fill="black"/>
<g opacity="0.1">
<path d="M689.449 230.76C688.514 231.573 687.312 232.143 686.688 233.215C686.156 234.135 686.141 235.276 685.715 236.256C685.289 237.237 684.049 238.051 683.182 237.427C682.985 230.585 679.615 224.161 675.47 218.687C674.312 217.037 672.903 215.578 671.295 214.361C669.669 213.135 667.643 212.56 665.614 212.749C663.332 213.061 661.325 214.612 659.02 214.81C655.978 215.061 653.248 212.955 650.229 212.856C649.002 212.865 647.791 213.137 646.679 213.654C645.566 214.171 644.578 214.92 643.779 215.851C642.192 217.723 641.013 219.906 640.319 222.26C639.124 225.832 638.473 229.564 638.387 233.329C638.342 235.451 638.144 238.096 636.182 238.887C636.227 239.451 636.227 240.018 636.182 240.582C638.167 239.822 638.364 237.138 638.41 235.01C638.495 231.244 639.147 227.512 640.342 223.94C641.036 221.586 642.214 219.403 643.802 217.531C644.601 216.6 645.59 215.851 646.702 215.333C647.814 214.815 649.024 214.541 650.251 214.528C653.294 214.635 656.031 216.741 659.043 216.482C661.325 216.292 663.348 214.741 665.637 214.43C667.664 214.238 669.69 214.81 671.318 216.034C672.926 217.253 674.334 218.715 675.493 220.367C679.638 225.841 683.007 232.242 683.205 239.107C684.072 239.731 685.312 238.91 685.738 237.937C686.164 236.963 686.179 235.823 686.711 234.896C687.335 233.824 688.536 233.246 689.472 232.44C691.845 230.395 692.438 226.951 692.347 223.826C692.347 223.727 692.347 223.636 692.347 223.537C692.195 226.259 691.472 229.019 689.449 230.76Z" fill="black"/>
<path d="M633.3 230.228C631.558 228.304 629.17 227.012 627.566 224.974C626.21 223.176 625.438 221.006 625.352 218.755C625.114 221.569 625.9 224.374 627.566 226.654C629.17 228.692 631.558 229.977 633.3 231.9C634.982 233.781 635.993 236.166 636.175 238.682C636.289 237.152 636.093 235.614 635.599 234.162C635.106 232.709 634.323 231.371 633.3 230.228Z" fill="black"/>
<path d="M693.822 207.268C693.373 209.131 692.575 210.902 692.21 212.78C691.99 214.05 691.911 215.34 691.974 216.627C691.999 215.9 692.078 215.175 692.21 214.46C692.575 212.582 693.373 210.811 693.822 208.948C694.08 207.92 694.165 206.856 694.073 205.801C694.024 206.295 693.94 206.785 693.822 207.268Z" fill="black"/>
</g>
<path opacity="0.1" d="M100.946 637.762C141.873 637.762 175.052 632.435 175.052 625.864C175.052 619.292 141.873 613.966 100.946 613.966C60.0182 613.966 26.8398 619.292 26.8398 625.864C26.8398 632.435 60.0182 637.762 100.946 637.762Z" fill="#06CB90"/>
<path d="M103.333 397.932H98.5645V505.257H103.333V397.932Z" fill="#535461"/>
<path d="M133.304 504.938L133 509.773L132.582 516.615L132.407 519.458L131.981 526.301L131.799 529.144L131.38 535.986L126.566 613.585C126.361 616.924 124.889 620.059 122.451 622.35C120.014 624.642 116.793 625.917 113.447 625.917H88.4485C85.093 625.918 81.8642 624.636 79.4247 622.333C76.9851 620.03 75.5198 616.881 75.3294 613.532L70.5152 535.933L70.0969 529.091L69.922 526.248L69.4885 519.405L69.3136 516.562L68.8953 509.72L68.5911 504.884C68.5384 503.958 68.675 503.03 68.9925 502.157C69.3099 501.285 69.8017 500.486 70.4377 499.81C71.0738 499.134 71.8408 498.594 72.6922 498.223C73.5436 497.853 74.4616 497.659 75.3902 497.654H126.513C127.446 497.66 128.367 497.856 129.222 498.23C130.076 498.604 130.845 499.149 131.481 499.831C132.117 500.513 132.607 501.318 132.92 502.196C133.234 503.074 133.365 504.007 133.304 504.938Z" fill="#3F3D56"/>
<path d="M133.001 509.765L132.575 516.592H69.3146L68.8887 509.765H133.001Z" fill="#9D9CB5"/>
<path d="M132.401 519.436L131.983 526.263H69.9161L69.4902 519.436H132.401Z" fill="#9D9CB5"/>
<path d="M131.799 529.114L131.381 535.933H70.5157L70.0898 529.114H131.799Z" fill="#9D9CB5"/>
<path d="M61.6412 438.165C89.4157 458.25 100.983 489.664 100.983 489.664C100.983 489.664 67.5201 488.516 39.738 468.43C11.9559 448.344 0.373047 416.953 0.373047 416.953C0.373047 416.953 33.8363 418.079 61.6412 438.165Z" fill="#06CB90"/>
<path d="M0.373047 416.953C0.373047 416.953 35.1064 436.226 46.2481 452.184C57.3898 468.141 100.953 489.679 100.953 489.679" stroke="#535461" stroke-width="2" stroke-miterlimit="10"/>
<path d="M79.5351 397.704C94.6544 408.629 100.952 425.727 100.952 425.727C100.952 425.727 82.6989 425.103 67.6176 414.178C52.5364 403.254 46.2012 386.148 46.2012 386.148C46.2012 386.148 64.4234 386.771 79.5351 397.704Z" fill="#06CB90"/>
<path d="M46.2012 386.148C46.2012 386.148 65.1079 396.639 71.1769 405.322C77.2459 414.004 100.952 425.727 100.952 425.727" stroke="#535461" stroke-width="2" stroke-miterlimit="10"/>
<path d="M122.917 424.86C105.554 443.935 101.881 468.864 101.881 468.864C101.881 468.864 126.362 462.858 143.71 443.775C161.058 424.693 164.746 399.772 164.746 399.772C164.746 399.772 140.28 405.785 122.917 424.86Z" fill="#06CB90"/>
<path d="M164.761 399.779C164.761 399.779 142.143 419.333 136.394 432.805C130.644 446.276 101.881 468.864 101.881 468.864" stroke="#535461" stroke-width="2" stroke-miterlimit="10"/>
</g>
<defs>
<linearGradient id="paint0_linear_411_271" x1="354.048" y1="635.237" x2="354.048" y2="196.077" gradientUnits="userSpaceOnUse">
<stop stop-color="#808080" stop-opacity="0.25"/>
<stop offset="0.54" stop-color="#808080" stop-opacity="0.12"/>
<stop offset="1" stop-color="#808080" stop-opacity="0.1"/>
</linearGradient>
<linearGradient id="paint1_linear_411_271" x1="655.871" y1="654.464" x2="655.871" y2="186.65" gradientUnits="userSpaceOnUse">
<stop stop-color="#808080" stop-opacity="0.25"/>
<stop offset="0.54" stop-color="#808080" stop-opacity="0.12"/>
<stop offset="1" stop-color="#808080" stop-opacity="0.1"/>
</linearGradient>
<clipPath id="clip0_411_271">
<rect width="888" height="656" fill="white"/>
</clipPath>
</defs>
</svg>
